<svg width="360" height="346" viewBox="0 0 360 346" fill="none" xmlns="http://www.w3.org/2000/svg">
<path d="M314.611 38.3242C314.611 38.3242 295.079 2.18059 253.223 0.0749035C211.367 -2.03078 196.474 40.8252 165.978 57.3561C150.012 66.0208 117.725 51.515 100.694 56.4767C46.2445 72.3621 26.8092 145.069 50.238 183.463C70.5123 216.751 105.486 232.023 158.346 231.813C211.206 231.604 248.334 233.427 295.062 195.234C341.791 157.041 337.491 86.0773 314.611 38.3242Z" fill="#B00000"/>
<path opacity="0.8" d="M314.611 38.3242C314.611 38.3242 295.079 2.18059 253.223 0.0749035C211.367 -2.03078 196.474 40.8252 165.978 57.3561C150.012 66.0208 117.725 51.515 100.694 56.4767C46.2445 72.3621 26.8092 145.069 50.238 183.463C70.5123 216.751 105.486 232.023 158.346 231.813C211.206 231.604 248.334 233.427 295.062 195.234C341.791 157.041 337.491 86.0773 314.611 38.3242Z" fill="white"/>
<path d="M206.244 44.6171H183.405V49.8772H206.244V44.6171Z" fill="#B00000"/>
<path d="M198.411 52.2169H183.405V57.4771H198.411V52.2169Z" fill="#B00000"/>
<path d="M192.045 59.8167H183.405V65.0769H192.045V59.8167Z" fill="#B00000"/>
<g opacity="0.2">
<path d="M206.244 44.6171H183.405V49.8772H206.244V44.6171Z" fill="black"/>
<path d="M198.411 52.2169H183.405V57.4771H198.411V52.2169Z" fill="black"/>
<path d="M192.045 59.8167H183.405V65.0769H192.045V59.8167Z" fill="black"/>
</g>
<path d="M143.743 102.866V118.703H151.489V102.866H143.743Z" fill="#B00000"/>
<path d="M154.933 108.304V118.703H162.679V108.304H154.933Z" fill="#B00000"/>
<path d="M166.115 112.709V118.695H173.86V112.709H166.115Z" fill="#B00000"/>
<g opacity="0.2">
<path d="M143.743 102.866V118.703H151.489V102.866H143.743Z" fill="black"/>
<path d="M154.933 108.304V118.703H162.679V108.304H154.933Z" fill="black"/>
<path d="M166.115 112.709V118.695H173.86V112.709H166.115Z" fill="black"/>
</g>
<path d="M142.009 130.256H235.797C237.025 130.259 238.242 130.018 239.377 129.55C240.512 129.081 241.544 128.394 242.413 127.526C243.283 126.658 243.972 125.627 244.443 124.493C244.913 123.358 245.155 122.142 245.155 120.914V43.6247C245.155 42.3965 244.913 41.1803 244.443 40.0458C243.972 38.9112 243.283 37.8806 242.413 37.0129C241.544 36.1451 240.512 35.4573 239.377 34.9888C238.242 34.5202 237.025 34.2801 235.797 34.2822H142.009C140.781 34.2812 139.565 34.522 138.43 34.9909C137.295 35.4599 136.264 36.1477 135.395 37.0152C134.526 37.8828 133.836 38.913 133.365 40.047C132.894 41.1811 132.651 42.3968 132.65 43.6247V120.914C132.651 122.142 132.894 123.358 133.365 124.492C133.836 125.626 134.526 126.656 135.395 127.523C136.264 128.391 137.295 129.079 138.43 129.548C139.565 130.017 140.781 130.257 142.009 130.256V130.256Z" stroke="#263238" stroke-width="1.0631" stroke-miterlimit="10"/>
<path d="M201.146 103.722H234.587" stroke="#263238" stroke-width="1.0631" stroke-miterlimit="10"/>
<path d="M201.146 107.296H234.587" stroke="#263238" stroke-width="1.0631" stroke-miterlimit="10"/>
<path d="M201.146 110.87H234.587" stroke="#263238" stroke-width="1.0631" stroke-miterlimit="10"/>
<path d="M201.146 114.452H234.587" stroke="#263238" stroke-width="1.0631" stroke-miterlimit="10"/>
<path d="M201.146 118.026H234.587" stroke="#263238" stroke-width="1.0631" stroke-miterlimit="10"/>
<path d="M142.719 45.3996H176.16" stroke="#263238" stroke-width="1.0631" stroke-miterlimit="10"/>
<path d="M142.719 48.9736H176.16" stroke="#263238" stroke-width="1.0631" stroke-miterlimit="10"/>
<path d="M142.719 52.5477H176.16" stroke="#263238" stroke-width="1.0631" stroke-miterlimit="10"/>
<path d="M142.719 56.1217H176.16" stroke="#263238" stroke-width="1.0631" stroke-miterlimit="10"/>
<path d="M142.719 59.7038H176.16" stroke="#263238" stroke-width="1.0631" stroke-miterlimit="10"/>
<path d="M230.399 73.5077L236.773 76.8559L236.055 58.8809L220.823 68.4896L227.196 71.8296L222.404 80.9543C221.557 80.9577 220.734 81.2413 220.065 81.7611L211.626 77.8401C211.626 76.8088 211.216 75.8197 210.487 75.0904C209.757 74.3612 208.768 73.9515 207.737 73.9515C206.706 73.9515 205.717 74.3612 204.987 75.0904C204.258 75.8197 203.848 76.8088 203.848 77.8401C203.848 78.3974 203.969 78.948 204.203 79.4537L193.142 91.4424C192.79 91.3293 192.423 91.2695 192.053 91.2649C191.867 91.2713 191.681 91.2902 191.497 91.3214L175.595 71.2246C175.824 70.7177 175.939 70.1671 175.934 69.611C175.934 68.5797 175.524 67.5906 174.795 66.8613C174.066 66.132 173.077 65.7223 172.045 65.7223C171.014 65.7223 170.025 66.132 169.295 66.8613C168.566 67.5906 168.157 68.5797 168.157 69.611C168.165 70.0115 168.233 70.4085 168.358 70.7889L150.198 89.2802C149.771 89.1241 149.321 89.0423 148.866 89.0382C148.099 89.0398 147.35 89.2687 146.713 89.6961C146.076 90.1235 145.58 90.7301 145.287 91.4393C144.995 92.1486 144.919 92.9286 145.07 93.6808C145.22 94.433 145.59 95.1237 146.133 95.6656C146.676 96.2075 147.368 96.5763 148.12 96.7254C148.873 96.8745 149.653 96.7972 150.361 96.5032C151.07 96.2093 151.676 95.7119 152.102 95.0739C152.528 94.4359 152.755 93.686 152.755 92.9188C152.754 92.5972 152.71 92.2772 152.626 91.9668L170.94 73.2657C171.298 73.3782 171.67 73.438 172.045 73.4432C172.283 73.4427 172.521 73.4211 172.755 73.3787L188.576 93.4351C188.29 94.0075 188.149 94.6416 188.167 95.2813C188.185 95.9209 188.36 96.5463 188.677 97.1021C188.994 97.6578 189.444 98.1266 189.986 98.467C190.528 98.8074 191.145 99.0088 191.783 99.0534C192.422 99.098 193.061 98.9843 193.645 98.7225C194.229 98.4607 194.739 98.0589 195.131 97.5527C195.522 97.0464 195.782 96.4514 195.889 95.8204C195.995 95.1894 195.944 94.5419 195.74 93.9353L207.084 81.6481C207.299 81.6864 207.518 81.708 207.737 81.7127C208.508 81.7136 209.261 81.4832 209.899 81.0511L218.532 85.085C218.565 85.6835 218.736 86.2662 219.032 86.7874C219.328 87.3086 219.741 87.7541 220.238 88.089C220.736 88.4239 221.304 88.6391 221.898 88.7176C222.492 88.7962 223.096 88.736 223.664 88.5418C224.231 88.3475 224.745 88.0246 225.166 87.5982C225.588 87.1719 225.905 86.6537 226.092 86.0843C226.28 85.5149 226.333 84.9099 226.247 84.3166C226.162 83.7233 225.94 83.1578 225.599 82.6647L230.399 73.5077Z" fill="#263238"/>
<path d="M111.214 91.1681L100.307 74.1209L82.2832 87.3762L65.6636 54.4839L21.8072 82.3661V104.891H120.702V85.9563L111.214 91.1681Z" fill="#263238" stroke="#263238" stroke-width="1.16063" stroke-linecap="round" stroke-linejoin="round"/>
<path d="M113.11 103.947L101.259 85.9563L81.3392 94.0079L58.096 71.757L21.8072 86.4081V119.099H120.702V98.7356L113.11 103.947Z" fill="#B00000" stroke="#263238" stroke-width="0.876601" stroke-miterlimit="10"/>
<path opacity="0.2" d="M113.11 103.947L101.259 85.9563L81.3392 94.0079L58.096 71.757L21.8072 86.4081V119.099H120.702V98.7356L113.11 103.947Z" fill="black"/>
<path d="M113.11 103.947L101.259 85.9563L81.3392 94.0079L58.096 71.757L21.8072 86.4081V119.099H120.702V98.7356L113.11 103.947Z" stroke="#263238" stroke-width="0.876601" stroke-miterlimit="10"/>
<path d="M77.9992 46.1419H70.0363C69.5494 46.1382 69.0756 46.2997 68.6923 46.5999C68.3089 46.9001 68.0385 47.3213 67.9253 47.7949C67.812 48.2685 67.8626 48.7665 68.0687 49.2076C68.2748 49.6488 68.6242 50.0071 69.0601 50.2242L66.2767 53.185L71.3514 50.4662H77.9992C78.5726 50.4662 79.1226 50.2384 79.5281 49.8329C79.9336 49.4274 80.1614 48.8775 80.1614 48.304C80.1614 47.7306 79.9336 47.1806 79.5281 46.7751C79.1226 46.3697 78.5726 46.1419 77.9992 46.1419Z" fill="#B00000"/>
<path opacity="0.2" d="M77.9992 46.1419H70.0363C69.5494 46.1382 69.0756 46.2997 68.6923 46.5999C68.3089 46.9001 68.0385 47.3213 67.9253 47.7949C67.812 48.2685 67.8626 48.7665 68.0687 49.2076C68.2748 49.6488 68.6242 50.0071 69.0601 50.2242L66.2767 53.185L71.3514 50.4662H77.9992C78.5726 50.4662 79.1226 50.2384 79.5281 49.8329C79.9336 49.4274 80.1614 48.8775 80.1614 48.304C80.1614 47.7306 79.9336 47.1806 79.5281 46.7751C79.1226 46.3697 78.5726 46.1419 77.9992 46.1419Z" fill="black"/>
<path d="M112.876 65.3916H104.913C104.426 65.3879 103.953 65.5494 103.569 65.8496C103.186 66.1498 102.915 66.571 102.802 67.0446C102.689 67.5182 102.74 68.0162 102.946 68.4573C103.152 68.8985 103.501 69.2568 103.937 69.4738L101.154 72.4589L106.228 69.732H112.876C113.45 69.732 114 69.5042 114.405 69.0987C114.811 68.6933 115.038 68.1433 115.038 67.5699C115.038 66.9964 114.811 66.4465 114.405 66.041C114 65.6355 113.45 65.4077 112.876 65.4077V65.3916Z" fill="#B00000"/>
<path opacity="0.2" d="M112.876 65.3916H104.913C104.426 65.3879 103.953 65.5494 103.569 65.8496C103.186 66.1498 102.915 66.571 102.802 67.0446C102.689 67.5182 102.74 68.0162 102.946 68.4573C103.152 68.8985 103.501 69.2568 103.937 69.4738L101.154 72.4589L106.228 69.732H112.876C113.45 69.732 114 69.5042 114.405 69.0987C114.811 68.6933 115.038 68.1433 115.038 67.5699C115.038 66.9964 114.811 66.4465 114.405 66.041C114 65.6355 113.45 65.4077 112.876 65.4077V65.3916Z" fill="black"/>
<path d="M25.8007 130.256H119.589C120.817 130.259 122.033 130.018 123.169 129.55C124.304 129.081 125.336 128.394 126.205 127.526C127.074 126.658 127.764 125.627 128.234 124.493C128.705 123.358 128.947 122.142 128.947 120.914V43.6247C128.947 42.3965 128.705 41.1803 128.234 40.0458C127.764 38.9112 127.074 37.8806 126.205 37.0129C125.336 36.1451 124.304 35.4573 123.169 34.9888C122.033 34.5202 120.817 34.2801 119.589 34.2822H25.8007C24.5725 34.2801 23.3559 34.5202 22.2206 34.9888C21.0852 35.4573 20.0534 36.1451 19.1842 37.0129C18.3149 37.8806 17.6253 38.9112 17.1548 40.0458C16.6843 41.1803 16.4421 42.3965 16.4421 43.6247V120.914C16.4421 122.142 16.6843 123.358 17.1548 124.493C17.6253 125.627 18.3149 126.658 19.1842 127.526C20.0534 128.394 21.0852 129.081 22.2206 129.55C23.3559 130.018 24.5725 130.259 25.8007 130.256V130.256Z" stroke="#263238" stroke-width="1.0631" stroke-miterlimit="10"/>
<path d="M23.566 44.7139H30.0283" stroke="#263238" stroke-width="1.0631" stroke-miterlimit="10"/>
<path d="M23.566 51.749H30.0283" stroke="#263238" stroke-width="1.0631" stroke-miterlimit="10"/>
<path d="M23.566 58.7841H30.0283" stroke="#263238" stroke-width="1.0631" stroke-miterlimit="10"/>
<path d="M23.566 65.8192H30.0283" stroke="#263238" stroke-width="1.0631" stroke-miterlimit="10"/>
<path d="M23.566 72.8542H30.0283" stroke="#263238" stroke-width="1.0631" stroke-miterlimit="10"/>
<path d="M277.37 54.25C273.168 54.2564 269.063 55.5081 265.573 57.847C262.082 60.1859 259.363 63.507 257.76 67.3906C256.157 71.2742 255.74 75.5459 256.564 79.666C257.387 83.786 259.414 87.5695 262.387 90.5382C265.36 93.5069 269.147 95.5276 273.268 96.345C277.39 97.1623 281.661 96.7396 285.542 95.1303C289.423 93.5209 292.74 90.7972 295.073 87.3033C297.407 83.8093 298.653 79.7021 298.653 75.5005C298.644 69.8615 296.398 64.4564 292.408 60.4721C288.417 56.4878 283.009 54.25 277.37 54.25ZM277.37 90.5065C274.402 90.4954 271.505 89.6051 269.043 87.9482C266.581 86.2913 264.666 83.9421 263.538 81.1972C262.411 78.4523 262.122 75.4348 262.708 72.5259C263.295 69.6169 264.73 66.947 266.833 64.8532C268.935 62.7594 271.611 61.3357 274.523 60.7618C277.434 60.188 280.45 60.4897 283.191 61.629C285.931 62.7682 288.272 64.6939 289.918 67.1628C291.564 69.6317 292.442 72.533 292.44 75.5005C292.436 77.4753 292.043 79.43 291.283 81.2529C290.524 83.0758 289.412 84.7313 288.013 86.1247C286.614 87.5182 284.953 88.6223 283.127 89.3742C281.301 90.126 279.345 90.5108 277.37 90.5065Z" fill="#B00000" stroke="#263238" stroke-width="1.0631" stroke-miterlimit="10"/>
<g opacity="0.2">
<path d="M277.37 54.25C273.168 54.2564 269.063 55.5081 265.573 57.847C262.082 60.1859 259.363 63.507 257.76 67.3906C256.157 71.2742 255.74 75.5459 256.564 79.666C257.387 83.786 259.414 87.5695 262.387 90.5382C265.36 93.5069 269.147 95.5276 273.268 96.345C277.39 97.1623 281.661 96.7396 285.542 95.1303C289.423 93.5209 292.74 90.7972 295.073 87.3033C297.407 83.8093 298.653 79.7021 298.653 75.5005C298.644 69.8615 296.398 64.4564 292.408 60.4721C288.417 56.4878 283.009 54.25 277.37 54.25ZM277.37 90.5065C274.402 90.4954 271.505 89.6051 269.043 87.9482C266.581 86.2913 264.666 83.9421 263.538 81.1972C262.411 78.4523 262.122 75.4348 262.708 72.5259C263.295 69.6169 264.73 66.947 266.833 64.8532C268.935 62.7594 271.611 61.3357 274.523 60.7618C277.434 60.188 280.45 60.4897 283.191 61.629C285.931 62.7682 288.272 64.6939 289.918 67.1628C291.564 69.6317 292.442 72.533 292.44 75.5005C292.436 77.4753 292.043 79.43 291.283 81.2529C290.524 83.0758 289.412 84.7313 288.013 86.1247C286.614 87.5182 284.953 88.6223 283.127 89.3742C281.301 90.126 279.345 90.5108 277.37 90.5065Z" fill="black"/>
</g>
<path d="M277.37 54.25C273.168 54.2564 269.063 55.5081 265.573 57.847C262.082 60.1859 259.363 63.507 257.76 67.3906C256.157 71.2742 255.74 75.5459 256.564 79.666C257.387 83.786 259.414 87.5695 262.387 90.5382C265.36 93.5069 269.147 95.5276 273.268 96.345C277.39 97.1623 281.661 96.7396 285.542 95.1303C289.423 93.5209 292.74 90.7972 295.073 87.3033C297.407 83.8093 298.653 79.7021 298.653 75.5005C298.644 69.8615 296.398 64.4564 292.408 60.4721C288.417 56.4878 283.009 54.25 277.37 54.25V54.25ZM277.37 90.5065C274.402 90.4954 271.505 89.6051 269.043 87.9482C266.581 86.2913 264.666 83.9421 263.538 81.1972C262.411 78.4523 262.122 75.4348 262.708 72.5259C263.295 69.6169 264.73 66.947 266.833 64.8532C268.935 62.7594 271.611 61.3357 274.523 60.7618C277.434 60.188 280.45 60.4897 283.191 61.629C285.931 62.7682 288.272 64.6939 289.918 67.1628C291.564 69.6317 292.442 72.533 292.44 75.5005C292.436 77.4753 292.043 79.43 291.283 81.2529C290.524 83.0758 289.412 84.7313 288.013 86.1247C286.614 87.5182 284.953 88.6223 283.127 89.3742C281.301 90.126 279.345 90.5108 277.37 90.5065V90.5065Z" stroke="#263238" stroke-width="1.0631" stroke-miterlimit="10"/>
<path d="M277.37 54.25C274.498 54.2383 271.654 54.8126 269.011 55.9376C266.369 57.0626 263.983 58.7147 262.001 60.7929L266.511 65.1092C268.227 63.3119 270.363 61.9686 272.726 61.1995C275.089 60.4305 277.606 60.2597 280.052 60.7026C282.497 61.1456 284.794 62.1882 286.738 63.7373C288.681 65.2863 290.21 67.2934 291.187 69.5785C292.164 71.8636 292.559 74.3554 292.336 76.8306C292.114 79.3058 291.28 81.6871 289.911 83.7611C288.542 85.8351 286.679 87.537 284.49 88.7142C282.302 89.8914 279.855 90.5073 277.37 90.5065V96.7429C280.195 96.798 283.002 96.2891 285.628 95.2461C288.254 94.2031 290.646 92.6469 292.663 90.6685C294.681 88.6901 296.283 86.3293 297.377 83.7242C298.471 81.1191 299.034 78.3219 299.034 75.4964C299.034 72.6709 298.471 69.8738 297.377 67.2687C296.283 64.6636 294.681 62.3028 292.663 60.3244C290.646 58.346 288.254 56.7898 285.628 55.7468C283.002 54.7038 280.195 54.1949 277.37 54.25Z" fill="#263238" stroke="#263238" stroke-width="1.0631" stroke-linecap="round" stroke-linejoin="round"/>
<path d="M329.859 54.25C325.657 54.2564 321.552 55.5081 318.061 57.847C314.571 60.1859 311.852 63.507 310.249 67.3906C308.645 71.2742 308.229 75.5459 309.053 79.666C309.876 83.786 311.903 87.5695 314.876 90.5382C317.849 93.5069 321.636 95.5276 325.757 96.345C329.878 97.1623 334.15 96.7396 338.031 95.1303C341.912 93.5209 345.229 90.7972 347.562 87.3033C349.896 83.8093 351.142 79.7021 351.142 75.5005C351.133 69.8615 348.887 64.4564 344.897 60.4721C340.906 56.4878 335.498 54.25 329.859 54.25ZM329.859 90.5065C326.889 90.5049 323.987 89.6228 321.519 87.9717C319.051 86.3206 317.127 83.9747 315.993 81.2306C314.858 78.4865 314.562 75.4675 315.143 72.5554C315.724 69.6432 317.155 66.9687 319.256 64.8701C321.357 62.7715 324.033 61.343 326.946 60.7652C329.858 60.1874 332.877 60.4864 335.62 61.6243C338.363 62.7621 340.707 64.6878 342.355 67.1577C344.004 69.6277 344.883 72.531 344.881 75.5005C344.87 79.4798 343.284 83.2929 340.468 86.1053C337.653 88.9176 333.838 90.5001 329.859 90.5065Z" fill="#B00000" stroke="#263238" stroke-width="1.0631" stroke-miterlimit="10"/>
<g opacity="0.2">
<path d="M329.859 54.25C325.657 54.2564 321.552 55.5081 318.061 57.847C314.571 60.1859 311.852 63.507 310.249 67.3906C308.645 71.2742 308.229 75.5459 309.053 79.666C309.876 83.786 311.903 87.5695 314.876 90.5382C317.849 93.5069 321.636 95.5276 325.757 96.345C329.878 97.1623 334.15 96.7396 338.031 95.1303C341.912 93.5209 345.229 90.7972 347.562 87.3033C349.896 83.8093 351.142 79.7021 351.142 75.5005C351.133 69.8615 348.887 64.4564 344.897 60.4721C340.906 56.4878 335.498 54.25 329.859 54.25ZM329.859 90.5065C326.889 90.5049 323.987 89.6228 321.519 87.9717C319.051 86.3206 317.127 83.9747 315.993 81.2306C314.858 78.4865 314.562 75.4675 315.143 72.5554C315.724 69.6432 317.155 66.9687 319.256 64.8701C321.357 62.7715 324.033 61.343 326.946 60.7652C329.858 60.1874 332.877 60.4864 335.62 61.6243C338.363 62.7621 340.707 64.6878 342.355 67.1577C344.004 69.6277 344.883 72.531 344.881 75.5005C344.87 79.4798 343.284 83.2929 340.468 86.1053C337.653 88.9176 333.838 90.5001 329.859 90.5065Z" fill="black"/>
</g>
<path d="M329.859 54.25C325.657 54.2564 321.552 55.5081 318.061 57.847C314.571 60.1859 311.852 63.507 310.249 67.3906C308.645 71.2742 308.229 75.5459 309.053 79.666C309.876 83.786 311.903 87.5695 314.876 90.5382C317.849 93.5069 321.636 95.5276 325.757 96.345C329.878 97.1623 334.15 96.7396 338.031 95.1303C341.912 93.5209 345.229 90.7972 347.562 87.3033C349.896 83.8093 351.142 79.7021 351.142 75.5005C351.133 69.8615 348.887 64.4564 344.897 60.4721C340.906 56.4878 335.498 54.25 329.859 54.25V54.25ZM329.859 90.5065C326.889 90.5049 323.987 89.6228 321.519 87.9717C319.051 86.3206 317.127 83.9747 315.993 81.2306C314.858 78.4865 314.562 75.4675 315.143 72.5554C315.724 69.6432 317.155 66.9687 319.256 64.8701C321.357 62.7715 324.033 61.343 326.946 60.7652C329.858 60.1874 332.877 60.4864 335.62 61.6243C338.363 62.7621 340.707 64.6878 342.355 67.1577C344.004 69.6277 344.883 72.531 344.881 75.5005C344.87 79.4798 343.284 83.2929 340.468 86.1053C337.653 88.9176 333.838 90.5001 329.859 90.5065V90.5065Z" stroke="#263238" stroke-width="1.0631" stroke-miterlimit="10"/>
<path d="M338.144 55.92L335.724 61.6642C338.915 63.0139 341.541 65.4257 343.157 68.4906C344.773 71.5555 345.279 75.085 344.589 78.4804C343.9 81.8759 342.057 84.9283 339.374 87.1202C336.69 89.3121 333.332 90.5085 329.867 90.5065V96.7429C334.776 96.7542 339.537 95.0651 343.341 91.9628C347.145 88.8605 349.757 84.5365 350.734 79.7258C351.71 74.9152 350.99 69.9148 348.697 65.5749C346.403 61.235 342.677 57.8233 338.152 55.92H338.144Z" fill="#263238" stroke="#263238" stroke-width="1.0631" stroke-linecap="round" stroke-linejoin="round"/>
<path d="M348.366 34.2822H260.67C259.143 34.2812 257.631 34.5808 256.22 35.1641C254.809 35.7474 253.527 36.6028 252.447 37.6816C251.366 38.7604 250.509 40.0414 249.924 41.4515C249.339 42.8616 249.037 44.3731 249.036 45.8998V118.647C249.04 121.729 250.268 124.683 252.449 126.86C254.631 129.037 257.588 130.259 260.67 130.256H348.366C349.893 130.259 351.404 129.96 352.815 129.377C354.226 128.795 355.508 127.94 356.589 126.862C357.669 125.784 358.526 124.504 359.112 123.094C359.697 121.684 359.999 120.173 360 118.647V45.8998C359.999 44.3731 359.697 42.8616 359.112 41.4515C358.527 40.0414 357.669 38.7604 356.589 37.6816C355.509 36.6028 354.227 35.7474 352.816 35.1641C351.405 34.5808 349.893 34.2812 348.366 34.2822V34.2822Z" stroke="#263238" stroke-width="1.0631" stroke-miterlimit="10"/>
<path d="M258.459 103.722H291.892" stroke="#263238" stroke-width="1.0631" stroke-miterlimit="10"/>
<path d="M258.459 107.296H291.892" stroke="#263238" stroke-width="1.0631" stroke-miterlimit="10"/>
<path d="M258.459 110.87H291.892" stroke="#263238" stroke-width="1.0631" stroke-miterlimit="10"/>
<path d="M258.459 114.452H291.892" stroke="#263238" stroke-width="1.0631" stroke-miterlimit="10"/>
<path d="M258.459 118.026H291.892" stroke="#263238" stroke-width="1.0631" stroke-miterlimit="10"/>
<path d="M313.675 103.722H347.116" stroke="#263238" stroke-width="1.0631" stroke-miterlimit="10"/>
<path d="M313.675 107.296H347.116" stroke="#263238" stroke-width="1.0631" stroke-miterlimit="10"/>
<path d="M313.675 110.87H347.116" stroke="#263238" stroke-width="1.0631" stroke-miterlimit="10"/>
<path d="M313.675 114.452H347.116" stroke="#263238" stroke-width="1.0631" stroke-miterlimit="10"/>
<path d="M313.675 118.026H347.116" stroke="#263238" stroke-width="1.0631" stroke-miterlimit="10"/>
<path d="M286.68 44.133H320.113" stroke="#263238" stroke-width="1.0631" stroke-miterlimit="10"/>
<path d="M286.68 47.7151H320.113" stroke="#263238" stroke-width="1.0631" stroke-miterlimit="10"/>
<path d="M248.681 264.746H347.656C350.927 264.748 354.064 263.452 356.378 261.142C358.693 258.832 359.996 255.697 360 252.427V148.183C359.999 146.563 359.679 144.959 359.058 143.463C358.437 141.967 357.527 140.607 356.381 139.463C355.235 138.318 353.875 137.41 352.378 136.791C350.881 136.172 349.276 135.854 347.656 135.855H201.468C199.848 135.854 198.244 136.172 196.747 136.791C195.25 137.41 193.89 138.318 192.743 139.463C191.597 140.607 190.688 141.967 190.067 143.463C189.446 144.959 189.126 146.563 189.125 148.183V216.872" stroke="#263238" stroke-width="1.0631" stroke-miterlimit="10"/>
<path d="M236.999 196.646H213.457V230.861H236.999V196.646Z" fill="#B00000" stroke="#263238" stroke-width="1.16063" stroke-miterlimit="10"/>
<path opacity="0.2" d="M236.999 196.646H213.457V230.861H236.999V196.646Z" fill="black"/>
<path d="M236.999 196.646H213.457V230.861H236.999V196.646Z" stroke="#263238" stroke-width="1.16063" stroke-miterlimit="10"/>
<path d="M269.689 179.534H246.148V217.413H269.689V179.534Z" fill="#B00000" stroke="#263238" stroke-width="1.16063" stroke-miterlimit="10"/>
<path opacity="0.2" d="M269.689 179.534H246.148V217.413H269.689V179.534Z" fill="black"/>
<path d="M269.689 179.534H246.148V217.413H269.689V179.534Z" stroke="#263238" stroke-width="1.16063" stroke-miterlimit="10"/>
<path d="M302.38 165.488H278.838V190.539H302.38V165.488Z" fill="#B00000" stroke="#263238" stroke-width="1.16063" stroke-miterlimit="10"/>
<path opacity="0.2" d="M302.38 165.488H278.838V190.539H302.38V165.488Z" fill="black"/>
<path d="M302.38 165.488H278.838V190.539H302.38V165.488Z" stroke="#263238" stroke-width="1.16063" stroke-miterlimit="10"/>
<path d="M236.999 230.853H213.457V244.907H236.999V230.853Z" fill="#263238" stroke="#263238" stroke-width="1.16063" stroke-linecap="round" stroke-linejoin="round"/>
<path d="M269.689 217.413H246.148V244.907H269.689V217.413Z" fill="#263238" stroke="#263238" stroke-width="1.16063" stroke-linecap="round" stroke-linejoin="round"/>
<path d="M333.142 179.534H309.601V217.413H333.142V179.534Z" fill="#B00000" stroke="#263238" stroke-width="1.16063" stroke-miterlimit="10"/>
<path opacity="0.2" d="M333.142 179.534H309.601V217.413H333.142V179.534Z" fill="black"/>
<path d="M333.142 179.534H309.601V217.413H333.142V179.534Z" stroke="#263238" stroke-width="1.16063" stroke-miterlimit="10"/>
<path d="M333.142 217.413H309.601V244.907H333.142V217.413Z" fill="#263238" stroke="#263238" stroke-width="1.16063" stroke-linecap="round" stroke-linejoin="round"/>
<path d="M302.38 190.531H278.838V244.907H302.38V190.531Z" fill="#263238" stroke="#263238" stroke-width="1.16063" stroke-linecap="round" stroke-linejoin="round"/>
<path d="M265.607 165.537H250.916C250.242 165.537 249.595 165.805 249.119 166.281C248.642 166.758 248.374 167.404 248.374 168.078V171.459C248.374 172.133 248.642 172.779 249.119 173.256C249.595 173.732 250.242 174 250.916 174H256.361L258.265 177.292L260.161 174H265.607C266.281 174 266.927 173.732 267.404 173.256C267.881 172.779 268.148 172.133 268.148 171.459V168.078C268.148 167.404 267.881 166.758 267.404 166.281C266.927 165.805 266.281 165.537 265.607 165.537Z" fill="#B00000"/>
<path opacity="0.5" d="M265.607 165.537H250.916C250.242 165.537 249.595 165.805 249.119 166.281C248.642 166.758 248.374 167.404 248.374 168.078V171.459C248.374 172.133 248.642 172.779 249.119 173.256C249.595 173.732 250.242 174 250.916 174H256.361L258.265 177.292L260.161 174H265.607C266.281 174 266.927 173.732 267.404 173.256C267.881 172.779 268.148 172.133 268.148 171.459V168.078C268.148 167.404 267.881 166.758 267.404 166.281C266.927 165.805 266.281 165.537 265.607 165.537Z" fill="white"/>
<path d="M265.607 165.537H250.916C250.242 165.537 249.595 165.805 249.119 166.281C248.642 166.758 248.374 167.404 248.374 168.078V171.459C248.374 172.133 248.642 172.779 249.119 173.256C249.595 173.732 250.242 174 250.916 174H256.361L258.265 177.292L260.161 174H265.607C266.281 174 266.927 173.732 267.404 173.256C267.881 172.779 268.148 172.133 268.148 171.459V168.078C268.148 167.404 267.881 166.758 267.404 166.281C266.927 165.805 266.281 165.537 265.607 165.537V165.537Z" stroke="#263238" stroke-width="1.16689" stroke-linecap="round" stroke-linejoin="round"/>
<path d="M232.57 183.084H217.886C217.214 183.084 216.568 183.351 216.092 183.826C215.616 184.301 215.347 184.945 215.345 185.617V189.006C215.347 189.679 215.616 190.323 216.092 190.798C216.568 191.273 217.214 191.539 217.886 191.539H223.324L225.228 194.831L227.132 191.539H232.57C233.242 191.539 233.887 191.273 234.364 190.798C234.84 190.323 235.109 189.679 235.111 189.006V185.617C235.109 184.945 234.84 184.301 234.364 183.826C233.887 183.351 233.242 183.084 232.57 183.084Z" fill="#B00000"/>
<path opacity="0.5" d="M232.57 183.084H217.886C217.214 183.084 216.568 183.351 216.092 183.826C215.616 184.301 215.347 184.945 215.345 185.617V189.006C215.347 189.679 215.616 190.323 216.092 190.798C216.568 191.273 217.214 191.539 217.886 191.539H223.324L225.228 194.831L227.132 191.539H232.57C233.242 191.539 233.887 191.273 234.364 190.798C234.84 190.323 235.109 189.679 235.111 189.006V185.617C235.109 184.945 234.84 184.301 234.364 183.826C233.887 183.351 233.242 183.084 232.57 183.084Z" fill="white"/>
<path d="M232.57 183.084H217.886C217.214 183.084 216.568 183.351 216.092 183.826C215.616 184.301 215.347 184.945 215.345 185.617V189.006C215.347 189.679 215.616 190.323 216.092 190.798C216.568 191.273 217.214 191.539 217.886 191.539H223.324L225.228 194.831L227.132 191.539H232.57C233.242 191.539 233.887 191.273 234.364 190.798C234.84 190.323 235.109 189.679 235.111 189.006V185.617C235.109 184.945 234.84 184.301 234.364 183.826C233.887 183.351 233.242 183.084 232.57 183.084V183.084Z" stroke="#263238" stroke-width="1.16689" stroke-linecap="round" stroke-linejoin="round"/>
<path d="M297.806 151.442H283.114C282.44 151.442 281.794 151.71 281.317 152.187C280.841 152.663 280.573 153.31 280.573 153.984V157.364C280.573 157.697 280.639 158.028 280.766 158.335C280.894 158.643 281.082 158.923 281.318 159.158C281.554 159.394 281.834 159.58 282.142 159.707C282.451 159.834 282.781 159.898 283.114 159.897H288.56L290.456 163.189L292.36 159.897H297.806C298.139 159.898 298.469 159.834 298.777 159.707C299.086 159.58 299.366 159.394 299.602 159.158C299.838 158.923 300.025 158.643 300.153 158.335C300.281 158.028 300.347 157.697 300.347 157.364V153.984C300.347 153.31 300.079 152.663 299.603 152.187C299.126 151.71 298.48 151.442 297.806 151.442Z" fill="#B00000"/>
<path opacity="0.5" d="M297.806 151.442H283.114C282.44 151.442 281.794 151.71 281.317 152.187C280.841 152.663 280.573 153.31 280.573 153.984V157.364C280.573 157.697 280.639 158.028 280.766 158.335C280.894 158.643 281.082 158.923 281.318 159.158C281.554 159.394 281.834 159.58 282.142 159.707C282.451 159.834 282.781 159.898 283.114 159.897H288.56L290.456 163.189L292.36 159.897H297.806C298.139 159.898 298.469 159.834 298.777 159.707C299.086 159.58 299.366 159.394 299.602 159.158C299.838 158.923 300.025 158.643 300.153 158.335C300.281 158.028 300.347 157.697 300.347 157.364V153.984C300.347 153.31 300.079 152.663 299.603 152.187C299.126 151.71 298.48 151.442 297.806 151.442Z" fill="white"/>
<path d="M297.806 151.442H283.114C282.44 151.442 281.794 151.71 281.317 152.187C280.841 152.663 280.573 153.31 280.573 153.984V157.364C280.573 157.697 280.639 158.028 280.766 158.335C280.894 158.643 281.082 158.923 281.318 159.158C281.554 159.394 281.834 159.58 282.142 159.707C282.451 159.834 282.781 159.898 283.114 159.897H288.56L290.456 163.189L292.36 159.897H297.806C298.139 159.898 298.469 159.834 298.777 159.707C299.086 159.58 299.366 159.394 299.602 159.158C299.838 158.923 300.025 158.643 300.153 158.335C300.281 158.028 300.347 157.697 300.347 157.364V153.984C300.347 153.31 300.079 152.663 299.603 152.187C299.126 151.71 298.48 151.442 297.806 151.442V151.442Z" stroke="#263238" stroke-width="1.16689" stroke-linecap="round" stroke-linejoin="round"/>
<path d="M328.745 165.319H314.062C313.388 165.319 312.742 165.587 312.265 166.063C311.788 166.54 311.521 167.186 311.521 167.86V171.241C311.521 171.574 311.587 171.904 311.714 172.212C311.842 172.52 312.029 172.799 312.266 173.035C312.502 173.27 312.782 173.457 313.09 173.583C313.398 173.71 313.729 173.775 314.062 173.774H319.5L321.404 177.066L323.308 173.774H328.745C329.079 173.775 329.41 173.71 329.719 173.584C330.027 173.457 330.308 173.271 330.545 173.035C330.782 172.8 330.97 172.52 331.098 172.213C331.227 171.905 331.294 171.574 331.295 171.241V167.86C331.293 167.186 331.023 166.539 330.545 166.063C330.067 165.586 329.42 165.319 328.745 165.319Z" fill="#B00000"/>
<path opacity="0.5" d="M328.745 165.319H314.062C313.388 165.319 312.742 165.587 312.265 166.063C311.788 166.54 311.521 167.186 311.521 167.86V171.241C311.521 171.574 311.587 171.904 311.714 172.212C311.842 172.52 312.029 172.799 312.266 173.035C312.502 173.27 312.782 173.457 313.09 173.583C313.398 173.71 313.729 173.775 314.062 173.774H319.5L321.404 177.066L323.308 173.774H328.745C329.079 173.775 329.41 173.71 329.719 173.584C330.027 173.457 330.308 173.271 330.545 173.035C330.782 172.8 330.97 172.52 331.098 172.213C331.227 171.905 331.294 171.574 331.295 171.241V167.86C331.293 167.186 331.023 166.539 330.545 166.063C330.067 165.586 329.42 165.319 328.745 165.319Z" fill="white"/>
<path d="M328.745 165.319H314.062C313.388 165.319 312.742 165.587 312.265 166.063C311.788 166.54 311.521 167.186 311.521 167.86V171.241C311.521 171.574 311.587 171.904 311.714 172.212C311.842 172.52 312.029 172.799 312.266 173.035C312.502 173.27 312.782 173.457 313.09 173.583C313.398 173.71 313.729 173.775 314.062 173.774H319.5L321.404 177.066L323.308 173.774H328.745C329.079 173.775 329.41 173.71 329.719 173.584C330.027 173.457 330.308 173.271 330.545 173.035C330.782 172.8 330.97 172.52 331.098 172.213C331.227 171.905 331.294 171.574 331.295 171.241V167.86C331.293 167.186 331.023 166.539 330.545 166.063C330.067 165.586 329.42 165.319 328.745 165.319V165.319Z" stroke="#263238" stroke-width="1.16689" stroke-linecap="round" stroke-linejoin="round"/>
<path d="M214.256 146.634H247.697" stroke="#263238" stroke-width="1.0631" stroke-miterlimit="10"/>
<path d="M214.256 150.208H247.697" stroke="#263238" stroke-width="1.0631" stroke-miterlimit="10"/>
<path d="M214.256 153.79H247.697" stroke="#263238" stroke-width="1.0631" stroke-miterlimit="10"/>
<path d="M214.256 157.364H247.697" stroke="#263238" stroke-width="1.0631" stroke-miterlimit="10"/>
<path d="M214.256 160.938H247.697" stroke="#263238" stroke-width="1.0631" stroke-miterlimit="10"/>
<path d="M34.8205 203.665C34.3768 204.198 33.925 204.762 33.4409 205.408C27.4385 213.475 30.5688 230.418 26.9221 236.67C23.2755 242.923 14.1428 241.132 12.3195 250.958C10.4962 260.785 11.5127 271.047 9.97176 275.968C8.43082 280.89 2.41226 284.036 1.36345 289.813C0.314642 295.589 0 299.776 0 299.776L34.8205 298.631V203.665Z" fill="#B00000"/>
<path opacity="0.7" d="M34.8205 203.665C34.3768 204.198 33.925 204.762 33.4409 205.408C27.4385 213.475 30.5688 230.418 26.9221 236.67C23.2755 242.923 14.1428 241.132 12.3195 250.958C10.4962 260.785 11.5127 271.047 9.97176 275.968C8.43082 280.89 2.41226 284.036 1.36345 289.813C0.314642 295.589 0 299.776 0 299.776L34.8205 298.631V203.665Z" fill="white"/>
<path d="M158.645 298.994L122.888 303.124L133.868 313.29L158.524 311.152" fill="#263238"/>
<path d="M158.645 298.994L122.888 303.124L133.868 313.29L158.524 311.152" stroke="#263238" stroke-width="0.969857" stroke-linecap="round" stroke-linejoin="round"/>
<path d="M134.546 304.746L157.451 302.245" stroke="white" stroke-width="0.484928" stroke-linecap="round" stroke-linejoin="round"/>
<path d="M136.337 307.247L157.096 305.464" stroke="white" stroke-width="0.484928" stroke-linecap="round" stroke-linejoin="round"/>
<path d="M138.483 309.393L157.451 307.602" stroke="white" stroke-width="0.484928" stroke-linecap="round" stroke-linejoin="round"/>
<path d="M136.829 303.278L143.356 310.394" stroke="white" stroke-width="0.484928" stroke-linecap="round" stroke-linejoin="round"/>
<path d="M141.662 303.044L148.148 309.748" stroke="white" stroke-width="0.484928" stroke-linecap="round" stroke-linejoin="round"/>
<path d="M146.68 302.326L153.159 309.03" stroke="white" stroke-width="0.484928" stroke-linecap="round" stroke-linejoin="round"/>
<path d="M152.045 301.971L157.451 307.602" stroke="white" stroke-width="0.484928" stroke-linecap="round" stroke-linejoin="round"/>
<path d="M122.081 214.331C120.904 213.83 115.45 192.604 115.45 192.604L112.642 184.601C112.642 184.601 108.423 170.2 106.809 167.521C105.196 164.843 98.7414 162.681 98.7414 162.681L96.3211 161.35L85.833 155.702V155.759L84.3243 152.604L66.2686 138.082C66.2686 138.082 66.5914 141.584 67.0754 145.037C67.027 145.037 63.3158 147.457 61.9927 149.579C61.7426 149.974 61.5248 150.821 60.5244 153.04C56.4905 155.121 41.2989 163.084 36.2727 166.965C30.3751 171.507 29.3021 174.718 29.5684 177.396L29.8427 181.672C29.8427 181.672 32.3598 197.001 34.9818 204.561L34.6591 204.407L34.5704 298.494L110.109 295.63L110.23 225.738C112.812 224.891 115.498 223.899 117.12 223.181L117.523 223.544L120.928 226.037C121.475 226.448 122.11 226.727 122.784 226.852C123.457 226.977 124.15 226.943 124.808 226.755C126.253 226.344 125.349 224.633 124.3 224.068C123.504 223.531 122.749 222.935 122.041 222.285L118.895 218.365C120.783 218.703 123.808 219.236 125.067 219.413C126.938 219.68 129.351 220.22 129.617 217.8C129.883 215.379 123.961 215.137 122.081 214.331Z" fill="white"/>
<path d="M66.3574 138.114C66.3574 138.114 67.382 149.49 68.0517 151.539C68.6567 153.395 71.7144 163.52 74.3929 168.062C77.0714 172.604 80.3389 172.096 80.8471 166.997C81.3554 161.898 81.0972 153.629 81.0972 153.629" stroke="#263238" stroke-width="0.969857" stroke-linecap="round" stroke-linejoin="round"/>
<path d="M66.9705 145.303C66.9705 145.303 63.4126 147.473 62.0734 149.611C60.7341 151.749 55.1028 171.539 55.1028 171.539L65.8168 172.08L56.7083 176.114" stroke="#263238" stroke-width="0.969857" stroke-linecap="round" stroke-linejoin="round"/>
<path d="M56.9827 178.494C56.9827 178.494 66.0912 193.475 67.4304 195.089C68.2532 196.088 68.9697 197.169 69.5684 198.316" stroke="#263238" stroke-width="0.969857" stroke-linecap="round" stroke-linejoin="round"/>
<path d="M67.6967 149.909C67.6967 149.909 72.2469 168.635 74.9576 178.526C77.6684 188.417 80.2582 200.736 80.2582 200.736" stroke="#263238" stroke-width="0.969857" stroke-linecap="round" stroke-linejoin="round"/>
<path d="M81.0649 155.767C81.0649 155.767 82.138 177.429 82.138 185.989V199.623" stroke="#263238" stroke-width="0.969857" stroke-linecap="round" stroke-linejoin="round"/>
<path d="M84.8406 153.621L92.0774 168.336L86.1799 170.208L95.2884 175.283L86.9867 201.229" stroke="#263238" stroke-width="0.969857" stroke-linecap="round" stroke-linejoin="round"/>
<path d="M85.9136 155.767L96.3614 161.382" stroke="#263238" stroke-width="0.969857" stroke-linecap="round" stroke-linejoin="round"/>
<path d="M104.671 177.695L106.01 202.834" stroke="#263238" stroke-width="0.969857" stroke-linecap="round" stroke-linejoin="round"/>
<path d="M60.4599 153.088C60.4599 153.088 42.2428 162.447 36.3534 166.997C30.4639 171.547 29.3828 174.75 29.6491 177.429" stroke="#263238" stroke-width="0.969857" stroke-linecap="round" stroke-linejoin="round"/>
<path d="M34.7398 204.44V298.042" stroke="#263238" stroke-width="0.969857" stroke-linecap="round" stroke-linejoin="round"/>
<path d="M81.8959 227.441V294.573" stroke="#263238" stroke-width="0.969857" stroke-linecap="round" stroke-linejoin="round"/>
<path d="M41.2828 176.097C41.2828 176.097 47.4304 178.252 50.1573 183.471" stroke="#263238" stroke-width="0.969857" stroke-linecap="round" stroke-linejoin="round"/>
<path d="M45.2763 175.791C45.2763 175.791 50.8108 177.945 53.2715 183.165" stroke="#263238" stroke-width="0.969857" stroke-linecap="round" stroke-linejoin="round"/>
<path d="M41.5894 261.705H61.9847V265.706H42.3155" stroke="#263238" stroke-width="0.969857" stroke-linecap="round" stroke-linejoin="round"/>
<path d="M117.007 196.138C115.087 191.297 113.481 187.263 112.642 184.609C112.686 186.218 112.402 187.819 111.807 189.314C111.212 190.809 110.319 192.168 109.181 193.306C103.614 198.744 102.041 196.856 102.291 204.407C102.541 211.959 105.518 215.388 103.655 221.826C101.791 228.264 93.6829 234.621 93.9734 245.771C94.0781 248.215 94.7581 250.601 95.9581 252.733L62.38 297.55L110.399 296.138V232.023L117.007 196.138Z" fill="#B00000"/>
<path opacity="0.7" d="M117.007 196.138C115.087 191.297 113.481 187.263 112.642 184.609C112.686 186.218 112.402 187.819 111.807 189.314C111.212 190.809 110.319 192.168 109.181 193.306C103.614 198.744 102.041 196.856 102.291 204.407C102.541 211.959 105.518 215.388 103.655 221.826C101.791 228.264 93.6829 234.621 93.9734 245.771C94.0781 248.215 94.7581 250.601 95.9581 252.733L62.38 297.55L110.399 296.138V232.023L117.007 196.138Z" fill="white"/>
<path d="M110.44 265.504V293.362" stroke="#263238" stroke-width="0.969857" stroke-linecap="round" stroke-linejoin="round"/>
<path d="M94.7801 115.912C96.3937 115.646 104.421 110.563 103.082 105.48C101.743 100.398 90.4719 94.2419 81.6297 97.1947C76.3028 98.9681 71.3826 101.785 67.1561 105.48C67.1561 105.48 61.2666 105.48 59.0883 107.901C56.91 110.321 58.5559 114.048 59.8951 116.727C61.0569 119.042 61.0085 125.182 60.9762 126.771C60.9031 126.767 60.8304 126.784 60.7664 126.82C60.3181 127.067 59.9269 127.406 59.6183 127.815C59.3097 128.223 59.0906 128.693 58.9754 129.191C58.6123 130.805 59.2819 132.959 60.9116 135.396C61.4539 136.31 62.2162 137.075 63.1292 137.62C64.0422 138.166 65.077 138.474 66.1396 138.518C66.8384 139.323 67.4073 140.232 67.8257 141.212C68.5034 142.826 75.2561 153.185 79.1206 153.484C79.6773 153.532 80.2097 153.548 80.7341 153.548C84.0661 153.548 86.4865 152.653 87.7854 150.926C89.5038 148.643 93.7636 139.438 94.2961 134.96C94.3848 134.153 94.4332 133.145 94.4574 131.935C95.0536 131.18 95.3778 130.246 95.3778 129.284C95.3778 128.322 95.0536 127.389 94.4574 126.634C94.3687 121.898 94.1186 116.993 94.054 115.864C94.2892 115.935 94.5376 115.951 94.7801 115.912Z" fill="white"/>
<path d="M93.6829 115.646C93.6829 115.646 94.4897 130.353 93.9492 134.903C93.4086 139.454 89.1085 148.538 87.495 150.684C85.8814 152.83 82.6543 153.354 79.1932 153.104C75.7322 152.854 69.0117 142.939 68.2049 141.067C67.758 139.986 67.1244 138.992 66.3332 138.131C66.3332 138.131 63.3885 138.397 61.2425 135.186C59.0964 131.975 58.2977 128.732 60.9762 127.158" stroke="#263238" stroke-width="0.969857" stroke-linecap="round" stroke-linejoin="round"/>
<path d="M82.1622 130.087C82.1622 130.087 84.042 126.86 85.9137 128.748L87.2529 137.308L83.219 138.381L83.7515 142.657" stroke="#263238" stroke-width="0.969857" stroke-linecap="round" stroke-linejoin="round"/>
<path d="M78.1444 134.097C80.3633 134.097 82.1621 132.301 82.1621 130.087C82.1621 127.872 80.3633 126.077 78.1444 126.077C75.9255 126.077 74.1266 127.872 74.1266 130.087C74.1266 132.301 75.9255 134.097 78.1444 134.097Z" fill="#B00000" stroke="#263238" stroke-width="0.969857" stroke-linecap="round" stroke-linejoin="round"/>
<path opacity="0.4" d="M78.1444 134.097C80.3633 134.097 82.1621 132.301 82.1621 130.087C82.1621 127.872 80.3633 126.077 78.1444 126.077C75.9255 126.077 74.1266 127.872 74.1266 130.087C74.1266 132.301 75.9255 134.097 78.1444 134.097Z" fill="white" stroke="#263238" stroke-width="1.16689" stroke-miterlimit="10"/>
<path d="M95.0222 129.288C95.0222 128.49 94.7856 127.711 94.3423 127.047C93.8991 126.384 93.2691 125.867 92.532 125.561C91.7949 125.256 90.9838 125.176 90.2013 125.332C89.4188 125.488 88.7001 125.872 88.1359 126.436C87.5718 127 87.1876 127.719 87.0319 128.501C86.8763 129.284 86.9562 130.095 87.2615 130.832C87.5668 131.569 88.0838 132.199 88.7472 132.642C89.4106 133.086 90.1905 133.322 90.9883 133.322C92.0581 133.322 93.0842 132.897 93.8407 132.141C94.5972 131.384 95.0222 130.358 95.0222 129.288Z" fill="#B00000" stroke="#263238" stroke-width="0.969857" stroke-linecap="round" stroke-linejoin="round"/>
<path opacity="0.4" d="M95.0222 129.288C95.0222 128.49 94.7856 127.711 94.3423 127.047C93.8991 126.384 93.2691 125.867 92.532 125.561C91.7949 125.256 90.9838 125.176 90.2013 125.332C89.4188 125.488 88.7001 125.872 88.1359 126.436C87.5718 127 87.1876 127.719 87.0319 128.501C86.8763 129.284 86.9562 130.095 87.2615 130.832C87.5668 131.569 88.0838 132.199 88.7472 132.642C89.4106 133.086 90.1905 133.322 90.9883 133.322C92.0581 133.322 93.0842 132.897 93.8407 132.141C94.5972 131.384 95.0222 130.358 95.0222 129.288Z" fill="white" stroke="#263238" stroke-width="1.16689" stroke-miterlimit="10"/>
<path d="M74.1267 130.087L66.0912 130.619" stroke="#263238" stroke-width="0.969857" stroke-linecap="round" stroke-linejoin="round"/>
<path d="M74.1912 124.512C74.1912 124.512 76.3453 122.366 80.3469 123.592" stroke="#263238" stroke-width="0.969857" stroke-linecap="round" stroke-linejoin="round"/>
<path d="M87.7289 123.286C87.7289 123.286 91.7628 121.14 92.9568 123.899" stroke="#263238" stroke-width="0.969857" stroke-linecap="round" stroke-linejoin="round"/>
<path d="M69.3021 116.178C69.3021 116.178 71.4481 121.261 71.9806 122.068C72.5131 122.874 69.3021 126.61 69.3021 126.61V130.353L66.075 130.619L62.8479 127.683L60.9762 127.142C60.9762 127.142 61.2424 119.389 59.9032 116.719C58.5639 114.048 56.9584 110.264 59.0964 107.893C61.2343 105.521 67.1641 105.472 67.1641 105.472C71.3906 101.777 76.3109 98.96 81.6377 97.1866C90.5123 94.2419 101.726 100.414 103.066 105.472C104.405 110.531 96.3937 115.646 94.7801 115.912C93.1666 116.178 90.7462 112.975 88.3259 112.975H84.5744C81.8959 112.975 81.6297 112.701 78.6769 112.701C75.7241 112.701 69.3021 116.178 69.3021 116.178Z" fill="#263238"/>
<path d="M72.6583 111.789C72.6583 111.789 77.2327 109.256 79.524 104.94C81.8152 100.623 74.1831 102.657 72.1501 105.448C70.117 108.239 74.9496 107.223 74.9496 107.223" stroke="white" stroke-width="0.484928" stroke-linecap="round" stroke-linejoin="round"/>
<path d="M69.3021 116.178C69.3021 116.178 66.5591 119.147 63.0012 119.405" stroke="white" stroke-width="0.484928" stroke-linecap="round" stroke-linejoin="round"/>
<path d="M70.6252 119.914C70.6252 119.914 65.7846 122.197 63.2513 122.197" stroke="white" stroke-width="0.484928" stroke-linecap="round" stroke-linejoin="round"/>
<path d="M63.2513 124.222C63.2513 124.222 67.0673 125.029 69.1004 124.222" stroke="white" stroke-width="0.484928" stroke-linecap="round" stroke-linejoin="round"/>
<path d="M76.7245 112.298C76.7245 112.298 78.7576 112.047 85.3651 109.764C91.9726 107.481 94.2396 104.924 89.9395 101.64" stroke="white" stroke-width="0.484928" stroke-linecap="round" stroke-linejoin="round"/>
<path d="M209.52 255.726C209.52 255.726 198.991 227.723 196.289 225.028C193.586 222.334 180.04 214.081 180.04 214.081L178.951 212.217L178.29 209.95C178.29 209.95 177.483 206.537 175.159 204.851L174.974 204.456L159 197.614C159 197.614 159.113 199.728 159.282 202.277C157.394 202.963 153.207 204.803 151.771 208.078C150.835 210.2 150.303 213.726 150.036 217.041L149.383 217.525L149.625 216.638C149.625 216.638 131.94 226.553 131.142 228.167C130.109 229.522 127.438 238.211 127.438 238.211C127.438 238.211 124.776 246.561 121.847 255.783C117.717 268.465 113.723 281.14 113.465 283.165C113.465 283.35 113.465 283.262 113.465 283.262C113.199 286.739 126.478 299.559 126.478 299.559H126.656L128.269 301.172C128.269 301.172 128.269 301.011 128.269 300.502C129.391 302.786 131.222 306.15 132.674 305.44C133.868 304.851 133.481 302.778 132.513 300.075C133.715 301.906 135.095 303.237 136.192 302.705C138.088 301.769 137.144 298.534 135.24 293.903C135.077 293.508 134.829 293.154 134.514 292.865C134.199 292.576 133.824 292.361 133.417 292.233C134.03 292.168 134.651 292.104 135.288 292.023C135.926 294.984 137.354 297.55 138.959 297.211C140.565 296.872 140.807 294.79 140.484 291.249C140.645 291.249 140.863 290.773 141.025 290.749C141.735 293.241 142.824 295.46 144.195 295.17C145.704 294.847 146.115 293.346 145.938 290.329C145.938 289.208 145.857 288.845 145.817 288.135C146.406 288.498 149.294 290.24 149.625 290.49C150.698 291.297 158.862 289.554 158.862 289.554C170.787 285.698 189.851 285.521 202.162 277.275C210.383 271.733 209.52 255.726 209.52 255.726ZM134.361 278.631L137.588 257.396L138.87 276.759L138.491 281.535L134.361 278.631Z" fill="white"/>
<path d="M131.19 227.707L150.399 216.412C150.399 216.412 151.601 206.118 154.054 205.069C154.054 205.069 157.426 202.124 161.259 202.705C163.453 203.028 165.075 200.285 166.317 195.508C166.317 186.061 166.188 174 166.091 166.465C165.284 162.745 164.413 159.728 164.123 158.55L155.071 154.75C155.071 154.75 153.134 148.215 143.179 146.755C133.223 145.295 122.549 155.968 121.331 163.237C120.113 170.506 127.156 178.26 124.486 182.382C121.815 186.505 110.649 192.556 107.737 199.583C104.825 206.61 105.551 211.458 105.551 211.458C105.551 211.458 113.562 222.842 111.376 226.723C109.189 230.603 96.3291 234.234 96.5712 245.626C96.7971 256.178 107.245 263.609 118.822 264.988L131.19 227.707Z" fill="#263238"/>
<path d="M152.207 156.694C152.207 156.694 145.349 148.836 136.708 151.37C128.068 153.903 124.76 163.044 126.543 167.61C128.326 172.177 132.384 175.976 129.334 182.826C126.285 189.676 118.661 190.692 114.812 198.558C110.964 206.424 112.021 208.966 112.021 208.966" stroke="white" stroke-width="0.484928" stroke-linecap="round" stroke-linejoin="round"/>
<path d="M147.632 163.294C147.632 163.294 141.283 164.052 141.283 168.135C141.283 172.217 144.841 174.218 145.317 179.292C145.793 184.367 144.3 186.4 140.476 192.741C136.652 199.083 136.442 202.382 139.209 206.699C141.977 211.015 143.784 218.114 140.226 220.648" stroke="white" stroke-width="0.484928" stroke-linecap="round" stroke-linejoin="round"/>
<path d="M149.157 158.219C149.157 158.219 141.533 154.185 135.442 157.969C129.351 161.753 137.475 169.385 138.491 176.485C139.508 183.584 134.457 188.667 127.568 196.275C125.549 198.577 124.051 201.287 123.173 204.22C122.296 207.154 122.062 210.242 122.485 213.274" stroke="white" stroke-width="0.484928" stroke-linecap="round" stroke-linejoin="round"/>
<path d="M121.969 222.156C121.969 222.156 123.743 225.956 118.911 231.031C114.078 236.106 103.663 237.38 101.162 244.988C98.6607 252.596 103.655 256.662 103.655 256.662" stroke="white" stroke-width="0.484928" stroke-linecap="round" stroke-linejoin="round"/>
<path d="M159.056 197.187C159.056 197.187 159.589 207.384 160.129 210.055C160.67 212.725 162.824 222.261 163.639 230.684C164.033 235.054 164.843 239.376 166.059 243.592C166.059 243.592 172.586 268.941 172.973 237.098C173.11 225.868 171.9 208.215 171.9 208.215L172.432 202.866" fill="white"/>
<g style="mix-blend-mode:multiply" opacity="0.3">
<path d="M169.972 203.705L160.129 210.055L159.5 199.333C159.5 199.333 166.075 203.221 169.972 203.705Z" fill="#B00000"/>
</g>
<g style="mix-blend-mode:multiply" opacity="0.3">
<path d="M171.916 208.183C171.916 208.183 171.593 226.384 170.706 234.081C170.216 238.972 170.721 243.912 172.19 248.602C172.19 248.602 173.425 220.446 171.916 208.183Z" fill="#B00000"/>
</g>
<path d="M159.056 197.187C159.056 197.187 159.589 207.384 160.129 210.055C160.67 212.725 162.824 222.261 163.639 230.684C164.033 235.054 164.843 239.376 166.059 243.592C166.059 243.592 172.586 268.941 172.973 237.098C173.11 225.868 171.9 208.215 171.9 208.215L172.432 202.866" stroke="#263238" stroke-width="0.969857" stroke-linecap="round" stroke-linejoin="round"/>
<path d="M151.956 239.914L150.254 243.56L161.452 254.492L151.956 239.914Z" fill="#B00000"/>
<path opacity="0.7" d="M151.956 239.914L150.254 243.56L161.452 254.492L151.956 239.914Z" fill="white"/>
<path d="M138.911 247.973C138.911 247.973 142.654 239.325 143.832 241.293C145.01 243.262 137.531 251.709 140.484 252.887C143.437 254.064 147.745 249.74 146.39 253.274C145.034 256.807 142.654 260.938 142.654 262.713C142.654 264.488 143.461 281.971 143.461 281.971L143.663 283.149L141.299 284.762C141.299 284.762 138.741 282.205 138.741 280.043C138.741 277.88 138.346 269.232 138.346 267.271C138.346 265.311 137.426 258.397 137.426 258.397L138.911 247.973Z" fill="#B00000"/>
<path opacity="0.7" d="M138.911 247.973C138.911 247.973 142.654 239.325 143.832 241.293C145.01 243.262 137.531 251.709 140.484 252.887C143.437 254.064 147.745 249.74 146.39 253.274C145.034 256.807 142.654 260.938 142.654 262.713C142.654 264.488 143.461 281.971 143.461 281.971L143.663 283.149L141.299 284.762C141.299 284.762 138.741 282.205 138.741 280.043C138.741 277.88 138.346 269.232 138.346 267.271C138.346 265.311 137.539 257.913 137.539 257.913L138.911 247.973Z" fill="white"/>
<path d="M159.185 202.213C159.185 202.213 153.699 203.367 151.819 207.651C149.939 211.934 149.681 221.826 149.948 224.496C150.097 226.645 150.097 228.801 149.948 230.95L157.451 228.53" fill="white"/>
<g style="mix-blend-mode:multiply" opacity="0.3">
<path d="M160.218 209.006C157.958 209.059 155.783 209.881 154.054 211.337C150.883 213.83 150.553 218.324 150.553 218.324C150.553 218.324 149.552 212.999 151.553 208.344C153.554 203.689 159.185 202.213 159.185 202.213L160.218 209.006Z" fill="#B00000"/>
</g>
<path d="M159.185 202.213C159.185 202.213 153.699 203.367 151.819 207.651C149.939 211.934 149.681 221.826 149.948 224.496C150.097 226.645 150.097 228.801 149.948 230.95L157.451 228.53" stroke="#263238" stroke-width="0.969857" stroke-linecap="round" stroke-linejoin="round"/>
<path d="M159.322 229.046L151.021 238.405C151.021 238.405 157.184 248.03 160.129 251.241" stroke="#263238" stroke-width="0.969857" stroke-linecap="round" stroke-linejoin="round"/>
<path d="M180.492 249.901L184.776 233.588L177.273 227.941L183.171 226.069L178.33 209.49C178.33 209.49 177.434 205.327 174.296 203.988" stroke="#263238" stroke-width="0.969857" stroke-linecap="round" stroke-linejoin="round"/>
<path d="M163.356 221.019C163.356 221.019 166.035 224.246 169.004 223.697C171.973 223.149 171.948 221.559 171.948 221.559" stroke="#263238" stroke-width="0.969857" stroke-linecap="round" stroke-linejoin="round"/>
<path d="M137.144 224.391C137.144 224.391 132.812 229.111 133.005 230.289C133.199 231.467 138.322 233.629 137.144 235C135.966 236.372 133.005 233.04 132.416 233.629C131.827 234.218 121 271.16 121.985 271.733C122.969 272.306 125.333 270.16 125.922 271.539C126.511 272.919 116.079 276.84 118.241 277.993C120.403 279.147 125.72 276.614 124.695 277.009C123.671 277.404 120.758 281.132 121.549 282.705C122.34 284.278 130.77 292.249 130.77 292.249C130.274 292.454 129.876 292.843 129.661 293.335C129.446 293.827 129.43 294.384 129.617 294.887C129.841 295.901 130.412 296.806 131.23 297.445C131.23 297.445 128.971 295.581 128.624 297.598C128.427 298.65 128.311 299.715 128.278 300.785L122.751 295.315C118.249 290.732 114.587 286.44 113.505 282.753C113.505 282.753 113.312 283.294 114.498 278.97C115.684 274.645 127.487 237.703 127.487 237.703C127.487 237.703 130.157 229.006 131.182 227.659C132.207 226.311 137.144 224.391 137.144 224.391Z" fill="#B00000"/>
<path opacity="0.7" d="M137.144 224.391C137.144 224.391 132.812 229.111 133.005 230.289C133.199 231.467 138.322 233.629 137.144 235C135.966 236.372 133.005 233.04 132.416 233.629C131.827 234.218 121 271.16 121.985 271.733C122.969 272.306 125.333 270.16 125.922 271.539C126.511 272.919 116.079 276.84 118.241 277.993C120.403 279.147 125.72 276.614 124.695 277.009C123.671 277.404 120.758 281.132 121.549 282.705C122.34 284.278 130.77 292.249 130.77 292.249C130.274 292.454 129.876 292.843 129.661 293.335C129.446 293.827 129.43 294.384 129.617 294.887C129.841 295.901 130.412 296.806 131.23 297.445C131.23 297.445 128.971 295.581 128.624 297.598C128.278 299.615 128.1 300.938 128.1 300.938L122.751 295.291C117.168 289.716 113.715 285.319 113.505 282.729C113.505 282.729 112.852 283.955 114.498 278.945C115.894 274.686 127.487 237.679 127.487 237.679C127.487 237.679 130.157 228.982 131.182 227.634C132.207 226.287 137.144 224.391 137.144 224.391Z" fill="white"/>
<path d="M146.841 219.018V234.081L156.337 231.652L159.5 228.005L149.762 229.95L150.399 216.372L146.841 219.018Z" fill="#B00000"/>
<path opacity="0.7" d="M146.841 219.018V234.081L156.337 231.652L159.5 228.005L149.762 229.95L150.399 216.372L146.841 219.018Z" fill="white"/>
<path d="M149.681 216.21C149.681 216.21 131.997 226.101 131.19 227.707C130.383 229.312 113.78 279.341 113.514 282.802C113.247 286.263 126.64 299.381 126.64 299.381" stroke="#263238" stroke-width="0.969857" stroke-linecap="round" stroke-linejoin="round"/>
<path d="M139.766 241.35L134.409 278.252" stroke="#263238" stroke-width="0.969857" stroke-linecap="round" stroke-linejoin="round"/>
<path d="M140.298 239.204L141.105 235.46" stroke="#263238" stroke-width="0.969857" stroke-linecap="round" stroke-linejoin="round"/>
<path d="M119.137 280.398C119.137 280.398 122.622 275.557 127.713 275.847C132.804 276.138 140.298 283.334 140.298 283.334" stroke="#263238" stroke-width="0.969857" stroke-linecap="round" stroke-linejoin="round"/>
<path d="M120.742 274.774C121.866 273.764 123.297 273.163 124.805 273.066C126.312 272.969 127.809 273.384 129.052 274.242" stroke="#263238" stroke-width="0.969857" stroke-linecap="round" stroke-linejoin="round"/>
<path d="M145.607 285.916C145.549 285.472 145.387 285.047 145.134 284.677C144.881 284.307 144.545 284.001 144.152 283.785C143.759 283.569 143.321 283.449 142.873 283.434C142.425 283.418 141.98 283.509 141.573 283.697C141.243 283.863 140.962 284.111 140.757 284.418C140.552 284.725 140.43 285.08 140.403 285.448C140.105 288.393 141.912 295.63 144.332 295.129C146.341 294.678 146.277 290.87 145.607 285.916Z" fill="white" stroke="#263238" stroke-width="0.969857" stroke-linecap="round" stroke-linejoin="round"/>
<path d="M140.218 288.054C140.158 287.61 139.995 287.187 139.742 286.818C139.489 286.448 139.152 286.144 138.76 285.929C138.367 285.714 137.929 285.594 137.482 285.579C137.035 285.564 136.59 285.655 136.184 285.843C135.854 286.006 135.572 286.253 135.366 286.559C135.161 286.864 135.04 287.219 135.014 287.586C134.716 290.531 136.523 297.767 138.943 297.267C140.984 296.815 140.92 293.016 140.218 288.054Z" fill="white" stroke="#263238" stroke-width="0.969857" stroke-linecap="round" stroke-linejoin="round"/>
<path d="M135.296 293.443C135.129 293.024 134.865 292.65 134.526 292.352C134.187 292.055 133.782 291.841 133.345 291.729C132.908 291.618 132.45 291.611 132.01 291.71C131.569 291.808 131.159 292.01 130.811 292.298C130.53 292.538 130.317 292.848 130.194 293.196C130.071 293.544 130.041 293.919 130.109 294.282C130.545 297.203 134.094 303.81 136.297 302.689C138.193 301.721 137.144 297.816 135.296 293.443Z" fill="white" stroke="#263238" stroke-width="0.969857" stroke-linecap="round" stroke-linejoin="round"/>
<path d="M131.827 298.607C131.704 298.292 131.508 298.012 131.255 297.789C131.002 297.566 130.699 297.406 130.372 297.322C130.045 297.238 129.703 297.234 129.374 297.309C129.045 297.383 128.738 297.535 128.479 297.751C128.271 297.933 128.112 298.164 128.019 298.424C127.926 298.684 127.901 298.963 127.947 299.236C128.278 301.422 130.924 306.327 132.578 305.513C133.998 304.811 133.247 302.076 131.827 298.607Z" fill="white" stroke="#263238" stroke-width="0.969857" stroke-linecap="round" stroke-linejoin="round"/>
<path d="M146.019 287.868C146.019 287.868 148.116 290.135 149.673 290.619C150.956 291.015 157.628 289.813 157.628 289.813" stroke="#263238" stroke-width="0.969857" stroke-linecap="round" stroke-linejoin="round"/>
<path d="M155.571 294.839C155.571 294.839 151.287 295.904 148.31 296.452C145.333 297.001 142.146 297.259 142.146 297.259C142.146 297.259 140 299.938 138.395 299.938" stroke="#263238" stroke-width="0.969857" stroke-linecap="round" stroke-linejoin="round"/>
<path d="M180.097 213.645C180.097 213.645 193.643 221.906 196.345 224.601C199.048 227.296 208.536 252.564 208.536 252.564" stroke="#263238" stroke-width="0.969857" stroke-linecap="round" stroke-linejoin="round"/>
<path d="M192.973 231.676L196.006 253.58" stroke="#263238" stroke-width="0.969857" stroke-linecap="round" stroke-linejoin="round"/>
<path d="M196.006 250.942L194.119 234.669L202.461 253.048L196.386 253.322L196.006 250.942Z" fill="#B00000"/>
<path opacity="0.7" d="M196.006 250.942L194.119 234.669L202.461 253.048L196.386 253.322L196.006 250.942Z" fill="white"/>
<path d="M144.421 242.923L139.177 251.531L143.622 248.014" stroke="#263238" stroke-width="0.969857" stroke-linecap="round" stroke-linejoin="round"/>
<path d="M137.717 258.437C137.717 258.437 138.806 274.427 138.806 276.606C138.806 278.784 138.499 281.656 138.499 281.656" stroke="#263238" stroke-width="0.969857" stroke-linecap="round" stroke-linejoin="round"/>
<path d="M155.837 153.895C155.837 153.895 148.068 158.437 147.535 165.125C147.279 169.536 147.731 173.96 148.875 178.227C148.875 178.227 146.454 176.089 146.196 180.906C145.938 185.722 149.948 189.458 151.553 189.458H153.167C153.167 189.458 156.741 196.799 161.033 200.277C165.325 203.754 169.512 203.907 172.457 202.834C175.401 201.761 181.033 196.953 181.573 190.531C182.114 184.109 181.573 173.411 181.033 166.731C180.492 160.051 179.161 155.226 171.924 152.822C164.687 150.418 159.589 152.015 155.837 153.895Z" fill="white"/>
<g style="mix-blend-mode:multiply" opacity="0.3">
<path d="M148.875 178.227C148.875 178.227 146.454 176.089 146.196 180.906C145.938 185.722 149.948 189.458 151.553 189.458H153.167C153.167 189.458 156.741 196.791 161.033 200.277L162.872 201.543C163.499 201.922 164.154 202.251 164.833 202.527C163.388 200.753 160.25 196.662 158.774 192.983C156.821 188.143 156.353 177.921 156.821 171.362C157.289 164.803 160.718 162.124 160.718 162.124L155.877 161.882C155.159 161.882 151.408 167.465 147.6 170.668L148.875 178.227Z" fill="#B00000"/>
</g>
<path d="M155.837 153.895C155.837 153.895 148.068 158.437 147.535 165.125C147.279 169.536 147.731 173.96 148.875 178.227C148.875 178.227 146.454 176.089 146.196 180.906C145.938 185.722 149.948 189.458 151.553 189.458H153.167C153.167 189.458 156.741 196.799 161.033 200.277C165.325 203.754 169.512 203.907 172.457 202.834C175.401 201.761 181.033 196.953 181.573 190.531C182.114 184.109 181.573 173.411 181.033 166.731C180.492 160.051 179.161 155.226 171.924 152.822C164.687 150.418 159.589 152.015 155.837 153.895Z" stroke="#263238" stroke-width="0.969857" stroke-linecap="round" stroke-linejoin="round"/>
<path d="M168.245 178.445C168.245 178.445 170.488 174.613 172.723 176.832L174.336 184.44L171.109 185.101L171.416 189.853" stroke="#263238" stroke-width="0.969857" stroke-linecap="round" stroke-linejoin="round"/>
<path d="M163.453 183.229C166.1 183.229 168.245 181.087 168.245 178.445C168.245 175.803 166.1 173.661 163.453 173.661C160.806 173.661 158.661 175.803 158.661 178.445C158.661 181.087 160.806 183.229 163.453 183.229Z" fill="#B00000" stroke="#263238" stroke-width="0.969857" stroke-linecap="round" stroke-linejoin="round"/>
<path opacity="0.4" d="M163.453 183.229C166.1 183.229 168.245 181.087 168.245 178.445C168.245 175.803 166.1 173.661 163.453 173.661C160.806 173.661 158.661 175.803 158.661 178.445C158.661 181.087 160.806 183.229 163.453 183.229Z" fill="white" stroke="#263238" stroke-width="1.16689" stroke-miterlimit="10"/>
<path d="M183.598 177.485C183.6 176.537 183.321 175.61 182.796 174.82C182.271 174.031 181.524 173.414 180.65 173.048C179.775 172.683 178.812 172.584 177.881 172.765C176.95 172.946 176.094 173.399 175.421 174.066C174.747 174.733 174.286 175.584 174.095 176.513C173.905 177.442 173.994 178.406 174.351 179.284C174.708 180.163 175.317 180.916 176.101 181.448C176.885 181.981 177.81 182.269 178.758 182.277C179.391 182.284 180.019 182.165 180.606 181.927C181.193 181.689 181.727 181.337 182.178 180.891C182.628 180.445 182.985 179.915 183.229 179.33C183.473 178.746 183.598 178.119 183.598 177.485Z" fill="#B00000" stroke="#263238" stroke-width="0.969857" stroke-linecap="round" stroke-linejoin="round"/>
<path opacity="0.4" d="M183.598 177.485C183.6 176.537 183.321 175.61 182.796 174.82C182.271 174.031 181.524 173.414 180.65 173.048C179.775 172.683 178.812 172.584 177.881 172.765C176.95 172.946 176.094 173.399 175.421 174.066C174.747 174.733 174.286 175.584 174.095 176.513C173.905 177.442 173.994 178.406 174.351 179.284C174.708 180.163 175.317 180.916 176.101 181.448C176.885 181.981 177.81 182.269 178.758 182.277C179.391 182.284 180.019 182.165 180.606 181.927C181.193 181.689 181.727 181.337 182.178 180.891C182.628 180.445 182.985 179.915 183.229 179.33C183.473 178.746 183.598 178.119 183.598 177.485Z" fill="white" stroke="#263238" stroke-width="1.16689" stroke-miterlimit="10"/>
<path d="M158.661 178.445L149.068 179.083" stroke="#263238" stroke-width="0.969857" stroke-linecap="round" stroke-linejoin="round"/>
<path d="M159.548 172.047C160.108 171.36 160.845 170.839 161.68 170.541C162.515 170.244 163.416 170.182 164.284 170.361" stroke="#263238" stroke-width="0.969857" stroke-linecap="round" stroke-linejoin="round"/>
<path d="M174.449 170.022C175.24 169.588 176.155 169.431 177.045 169.577C177.936 169.724 178.752 170.164 179.363 170.829" stroke="#263238" stroke-width="0.969857" stroke-linecap="round" stroke-linejoin="round"/>
<path d="M181.025 166.731C180.492 160.043 179.153 155.226 171.916 152.822C164.679 150.418 159.588 152.015 155.837 153.895C155.837 153.895 148.068 158.437 147.535 165.125C147.279 169.536 147.731 173.96 148.874 178.227C148.874 178.227 151.021 180.365 151.553 177.421C152.085 174.476 150.48 169.659 158.007 164.044C165.534 158.429 176.224 161.108 179.976 166.465C180.414 166.816 180.793 167.235 181.097 167.707C181.105 167.61 181.033 166.852 181.025 166.731Z" fill="#263238"/>
<path d="M63.9451 196.412C63.9451 196.412 57.4909 195.347 52.6502 198.558C51.2721 199.475 50.186 200.768 49.521 202.284C48.8561 203.8 48.6401 205.475 48.8987 207.11" stroke="#263238" stroke-width="0.969857" stroke-linecap="round" stroke-linejoin="round"/>
<path d="M50.0121 196.953C50.0121 196.953 46.785 200.696 46.785 203.907" stroke="#263238" stroke-width="0.969857" stroke-linecap="round" stroke-linejoin="round"/>
<path d="M29.9153 181.705C29.9153 181.705 33.1424 201.229 36.0791 207.11C39.0157 212.991 47.3739 218.615 53.7636 221.285C60.1533 223.955 90.1976 228.239 91.2707 227.973C92.3437 227.707 86.1799 222.092 87.5191 215.137C88.1888 211.684 92.8761 208.183 92.8761 208.183C92.8761 208.183 79.7499 202.536 74.6591 200.43C69.5684 198.324 63.9451 196.396 63.9451 196.396C63.9451 196.396 56.6841 189.716 53.2311 186.771C50.0562 184.273 46.7461 181.951 43.3158 179.817" stroke="#263238" stroke-width="0.969857" stroke-linecap="round" stroke-linejoin="round"/>
<path d="M118.507 217.929L122.009 222.285C122.717 222.935 123.472 223.531 124.268 224.068C125.317 224.633 126.22 226.344 124.776 226.755C124.118 226.943 123.425 226.977 122.751 226.852C122.078 226.727 121.443 226.448 120.896 226.037L117.491 223.544L114.643 220.97L116.708 217.259L118.507 217.929Z" fill="white" stroke="#263238" stroke-width="0.969857" stroke-linecap="round" stroke-linejoin="round"/>
<path d="M92.8761 208.183C92.8761 208.183 101.186 210.055 103.864 210.603C106.543 211.152 120.21 213.548 122.081 214.347C123.953 215.145 129.851 215.42 129.584 217.824C129.318 220.228 126.906 219.696 125.034 219.438C123.163 219.179 117.257 218.106 117.257 218.106C117.257 218.106 119.137 221.584 118.604 222.382C118.072 223.181 106.01 227.465 103.598 227.465C101.186 227.465 99.5643 223.181 98.5074 221.818L95.2803 217.784L88.8261 214.847" fill="white"/>
<path d="M92.8761 208.183C92.8761 208.183 101.186 210.055 103.864 210.603C106.543 211.152 120.21 213.548 122.081 214.347C123.953 215.145 129.851 215.42 129.584 217.824C129.318 220.228 126.906 219.696 125.034 219.438C123.163 219.179 117.257 218.106 117.257 218.106C117.257 218.106 119.137 221.584 118.604 222.382C118.072 223.181 106.01 227.465 103.598 227.465C101.186 227.465 99.5643 223.181 98.5074 221.818L95.2803 217.784L88.8261 214.847" stroke="#263238" stroke-width="0.969857" stroke-linecap="round" stroke-linejoin="round"/>
<path d="M117.257 218.082L115.385 215.404" stroke="#263238" stroke-width="0.969857" stroke-linecap="round" stroke-linejoin="round"/>
<path d="M91.2706 227.973C92.672 226.697 93.7638 225.118 94.4628 223.357C95.1619 221.595 95.4497 219.697 95.3045 217.808" stroke="#263238" stroke-width="0.969857" stroke-linecap="round" stroke-linejoin="round"/>
<path d="M105.47 221.285L107.616 226.368" stroke="#263238" stroke-width="0.969857" stroke-linecap="round" stroke-linejoin="round"/>
<path d="M110.827 219.147L112.973 224.762" stroke="#263238" stroke-width="0.969857" stroke-linecap="round" stroke-linejoin="round"/>
<path d="M162.275 258.195V321.043L246.131 316.235V253.919L162.275 258.195Z" fill="#263238" stroke="#263238" stroke-width="0.969857" stroke-linecap="round" stroke-linejoin="round"/>
<path d="M246.131 253.919L241.839 251.507L158.79 255.525V316.767L162.275 321.043V258.195L246.131 253.919Z" fill="white" stroke="#263238" stroke-width="0.969857" stroke-linecap="round" stroke-linejoin="round"/>
<path d="M158.79 255.525L162.267 258.195" stroke="#263238" stroke-width="0.969857" stroke-linecap="round" stroke-linejoin="round"/>
<path d="M195.764 294.839V337.364L218.806 335.759V292.967L195.764 294.839Z" fill="#263238" stroke="#263238" stroke-width="0.969857" stroke-linecap="round" stroke-linejoin="round"/>
<path d="M195.046 318.913V294.839L218.806 292.967L218.871 317.421" stroke="white" stroke-width="0.969857" stroke-linecap="round" stroke-linejoin="round"/>
<path d="M195.764 337.364L183.703 326.666L195.764 326.126" fill="white"/>
<path d="M195.764 337.364L183.703 326.666L195.764 326.126" stroke="#263238" stroke-width="0.969857" stroke-linecap="round" stroke-linejoin="round"/>
<path opacity="0.7" d="M49.641 298.066L125.841 305.698C125.841 305.698 122.921 303.35 124.058 303.124C126.22 302.705 129.423 302.415 129.423 302.415L122.703 295.331L49.641 298.066Z" fill="#B00000"/>
<path opacity="0.7" d="M49.641 298.066L125.841 305.698C125.841 305.698 122.921 303.35 124.058 303.124C126.22 302.705 129.423 302.415 129.423 302.415L122.703 295.331L49.641 298.066Z" fill="white"/>
<path d="M122.759 295.363L3.84027 299.599" stroke="#263238" stroke-width="0.969857" stroke-linecap="round" stroke-linejoin="round"/>
<path d="M245.559 292.806L325.72 342.277" stroke="#263238" stroke-width="0.969857" stroke-linecap="round" stroke-linejoin="round"/>
<path d="M99.8467 305.262L57.8862 310.385L84.9213 338.776L130.149 333.185L99.8467 305.262Z" fill="#B00000"/>
<path opacity="0.7" d="M99.8467 305.262L57.8862 310.385L84.9213 338.776L130.149 333.185L99.8467 305.262Z" fill="white"/>
<path d="M56.9504 316.436L94.2477 311.781L121.291 339.236L78.3945 345.287L56.9504 316.436Z" fill="white"/>
<path d="M79.6773 341.293C79.6131 341.293 79.5515 341.268 79.5061 341.222C79.4607 341.177 79.4352 341.115 79.4352 341.051C79.4352 340.987 79.4607 340.925 79.5061 340.88C79.5515 340.834 79.6131 340.809 79.6773 340.809L113.981 336.396C114.045 336.391 114.108 336.409 114.159 336.448C114.209 336.487 114.244 336.543 114.256 336.606C114.26 336.638 114.258 336.671 114.249 336.703C114.241 336.734 114.226 336.764 114.206 336.789C114.185 336.815 114.16 336.836 114.131 336.852C114.102 336.867 114.071 336.877 114.038 336.88L79.7418 341.293H79.6773Z" fill="#B00000"/>
<path d="M77.7652 339.002C77.701 339.002 77.6395 338.976 77.5941 338.931C77.5487 338.886 77.5232 338.824 77.5232 338.76C77.5232 338.696 77.5487 338.634 77.5941 338.589C77.6395 338.543 77.701 338.518 77.7652 338.518L112.069 334.105C112.134 334.096 112.199 334.113 112.25 334.153C112.301 334.192 112.335 334.25 112.344 334.314C112.352 334.379 112.335 334.444 112.296 334.495C112.256 334.547 112.198 334.58 112.134 334.589L77.8378 339.002H77.7652Z" fill="#B00000"/>
<path d="M75.8612 336.711C75.801 336.711 75.7428 336.689 75.6981 336.648C75.6533 336.608 75.6252 336.553 75.6192 336.493C75.6122 336.429 75.63 336.365 75.6691 336.314C75.7082 336.263 75.7654 336.228 75.8289 336.218L110.109 331.805C110.173 331.802 110.236 331.823 110.287 331.863C110.337 331.903 110.372 331.96 110.383 332.023C110.387 332.055 110.384 332.087 110.374 332.118C110.365 332.149 110.35 332.177 110.33 332.202C110.31 332.227 110.285 332.247 110.256 332.262C110.228 332.277 110.197 332.286 110.165 332.289L75.8693 336.711H75.8612Z" fill="#B00000"/>
<path d="M73.9492 334.411C73.885 334.411 73.8234 334.386 73.778 334.34C73.7327 334.295 73.7072 334.233 73.7072 334.169C73.7072 334.105 73.7327 334.044 73.778 333.998C73.8234 333.953 73.885 333.927 73.9492 333.927L108.253 329.514C108.317 329.507 108.381 329.525 108.433 329.564C108.484 329.603 108.518 329.66 108.528 329.724C108.532 329.756 108.53 329.788 108.522 329.819C108.514 329.85 108.5 329.88 108.48 329.905C108.461 329.931 108.436 329.952 108.408 329.968C108.381 329.984 108.35 329.994 108.318 329.998L74.0137 334.411H73.9492Z" fill="#B00000"/>
<path d="M72.0452 332.12C71.9862 332.121 71.9291 332.1 71.8845 332.061C71.8399 332.022 71.811 331.969 71.8031 331.91C71.7986 331.878 71.8005 331.846 71.8086 331.815C71.8167 331.784 71.831 331.755 71.8505 331.729C71.87 331.704 71.8944 331.682 71.9223 331.666C71.9502 331.65 71.981 331.64 72.0129 331.636L106.317 327.223C106.381 327.216 106.445 327.234 106.496 327.273C106.547 327.312 106.581 327.369 106.591 327.433C106.596 327.465 106.594 327.498 106.585 327.53C106.576 327.561 106.562 327.591 106.541 327.616C106.521 327.642 106.495 327.663 106.467 327.679C106.438 327.694 106.406 327.704 106.374 327.707L72.0774 332.12H72.0452Z" fill="#B00000"/>
<path d="M70.1331 329.821C70.0729 329.821 70.0147 329.799 69.97 329.759C69.9252 329.718 69.8971 329.663 69.8911 329.603C69.886 329.539 69.9046 329.476 69.9433 329.426C69.9821 329.375 70.0382 329.34 70.1008 329.329L104.405 324.916C104.47 324.909 104.535 324.928 104.587 324.968C104.638 325.009 104.671 325.068 104.679 325.133C104.686 325.196 104.668 325.26 104.629 325.309C104.59 325.359 104.532 325.391 104.47 325.4L70.1654 329.821H70.1331Z" fill="#B00000"/>
<path d="M68.2291 327.53C68.1702 327.53 68.113 327.509 68.0685 327.47C68.0239 327.432 67.995 327.378 67.9871 327.32C67.9826 327.288 67.9844 327.256 67.9926 327.224C68.0007 327.193 68.0149 327.164 68.0344 327.139C68.054 327.113 68.0784 327.092 68.1063 327.076C68.1342 327.06 68.165 327.049 68.1969 327.045L102.501 322.632C102.565 322.627 102.628 322.646 102.678 322.685C102.729 322.723 102.764 322.779 102.775 322.842C102.78 322.875 102.778 322.908 102.769 322.939C102.76 322.971 102.745 323 102.725 323.026C102.705 323.052 102.679 323.073 102.651 323.088C102.622 323.104 102.59 323.113 102.557 323.116L68.2614 327.53H68.2291Z" fill="#B00000"/>
<path d="M66.317 325.238C66.2529 325.238 66.1913 325.213 66.1459 325.167C66.1005 325.122 66.075 325.06 66.075 324.996C66.075 324.932 66.1005 324.87 66.1459 324.825C66.1913 324.78 66.2529 324.754 66.317 324.754L100.621 320.341C100.653 320.337 100.685 320.339 100.716 320.347C100.747 320.355 100.776 320.37 100.802 320.389C100.827 320.409 100.849 320.433 100.865 320.461C100.881 320.488 100.891 320.519 100.896 320.551C100.9 320.583 100.898 320.615 100.889 320.646C100.881 320.677 100.867 320.706 100.847 320.731C100.828 320.757 100.804 320.778 100.776 320.794C100.748 320.81 100.718 320.821 100.686 320.825L66.3816 325.238H66.317Z" fill="#B00000"/>
<path d="M64.4131 322.947C64.3529 322.947 64.2947 322.925 64.25 322.885C64.2052 322.845 64.1771 322.789 64.171 322.729C64.164 322.665 64.1819 322.601 64.221 322.55C64.26 322.499 64.3173 322.465 64.3808 322.455L98.685 318.042C98.7497 318.037 98.8139 318.057 98.8647 318.097C98.9155 318.137 98.9493 318.195 98.9593 318.26C98.9626 318.291 98.9596 318.324 98.9504 318.354C98.9413 318.385 98.9261 318.413 98.9059 318.438C98.8856 318.463 98.8607 318.483 98.8324 318.498C98.8042 318.514 98.7733 318.523 98.7414 318.526L64.4454 322.947H64.4131Z" fill="#B00000"/>
<path d="M62.5091 320.648C62.4449 320.648 62.3833 320.622 62.3379 320.577C62.2925 320.531 62.267 320.47 62.267 320.406C62.267 320.341 62.2925 320.28 62.3379 320.234C62.3833 320.189 62.4449 320.164 62.5091 320.164L96.8132 315.751C96.8771 315.744 96.9413 315.761 96.9924 315.8C97.0435 315.84 97.0775 315.897 97.0875 315.96C97.0921 315.992 97.0902 316.025 97.0821 316.056C97.0739 316.087 97.0597 316.116 97.0402 316.141C97.0206 316.167 96.9962 316.188 96.9683 316.204C96.9404 316.22 96.9097 316.231 96.8778 316.235L62.5091 320.648Z" fill="#B00000"/>
<g opacity="0.7">
<path d="M79.6773 341.293C79.6131 341.293 79.5515 341.268 79.5061 341.222C79.4607 341.177 79.4352 341.115 79.4352 341.051C79.4352 340.987 79.4607 340.925 79.5061 340.88C79.5515 340.835 79.6131 340.809 79.6773 340.809L113.981 336.396C114.045 336.391 114.108 336.409 114.159 336.448C114.209 336.487 114.244 336.543 114.256 336.606C114.26 336.638 114.258 336.671 114.249 336.703C114.241 336.734 114.226 336.764 114.206 336.789C114.185 336.815 114.16 336.836 114.131 336.852C114.102 336.868 114.071 336.877 114.038 336.88L79.7418 341.293H79.6773Z" fill="white"/>
<path d="M77.7652 339.002C77.701 339.002 77.6395 338.976 77.5941 338.931C77.5487 338.886 77.5232 338.824 77.5232 338.76C77.5232 338.696 77.5487 338.634 77.5941 338.589C77.6395 338.543 77.701 338.518 77.7652 338.518L112.069 334.105C112.134 334.096 112.199 334.113 112.25 334.153C112.301 334.192 112.335 334.25 112.344 334.314C112.352 334.379 112.335 334.444 112.296 334.495C112.256 334.546 112.198 334.58 112.134 334.589L77.8378 339.002H77.7652Z" fill="white"/>
<path d="M75.8612 336.711C75.801 336.711 75.7428 336.689 75.6981 336.648C75.6533 336.608 75.6252 336.553 75.6192 336.493C75.6122 336.429 75.63 336.365 75.6691 336.314C75.7082 336.263 75.7654 336.228 75.8289 336.218L110.109 331.805C110.173 331.802 110.236 331.823 110.287 331.863C110.337 331.903 110.372 331.96 110.383 332.023C110.387 332.055 110.384 332.087 110.374 332.118C110.365 332.149 110.35 332.177 110.33 332.202C110.31 332.227 110.285 332.247 110.256 332.262C110.228 332.277 110.197 332.286 110.165 332.289L75.8693 336.711H75.8612Z" fill="white"/>
<path d="M73.9492 334.411C73.885 334.411 73.8234 334.386 73.778 334.34C73.7327 334.295 73.7072 334.233 73.7072 334.169C73.7072 334.105 73.7327 334.043 73.778 333.998C73.8234 333.953 73.885 333.927 73.9492 333.927L108.253 329.514C108.317 329.507 108.381 329.525 108.433 329.564C108.484 329.603 108.518 329.66 108.528 329.724C108.532 329.756 108.53 329.788 108.522 329.819C108.514 329.85 108.5 329.88 108.48 329.905C108.461 329.931 108.436 329.952 108.408 329.968C108.381 329.984 108.35 329.994 108.318 329.998L74.0137 334.411H73.9492Z" fill="white"/>
<path d="M72.0452 332.12C71.9862 332.121 71.9291 332.1 71.8845 332.061C71.8399 332.022 71.811 331.969 71.8031 331.91C71.7986 331.878 71.8005 331.846 71.8086 331.815C71.8167 331.784 71.831 331.755 71.8505 331.729C71.87 331.704 71.8944 331.682 71.9223 331.666C71.9502 331.65 71.981 331.64 72.0129 331.636L106.317 327.223C106.381 327.216 106.445 327.234 106.496 327.273C106.547 327.312 106.581 327.369 106.591 327.433C106.596 327.465 106.594 327.498 106.585 327.53C106.576 327.561 106.562 327.591 106.541 327.616C106.521 327.642 106.495 327.663 106.467 327.679C106.438 327.694 106.406 327.704 106.374 327.707L72.0774 332.12H72.0452Z" fill="white"/>
<path d="M70.1331 329.821C70.0729 329.821 70.0147 329.799 69.97 329.759C69.9252 329.718 69.8971 329.663 69.8911 329.603C69.886 329.539 69.9046 329.476 69.9433 329.425C69.9821 329.375 70.0382 329.34 70.1008 329.329L104.405 324.915C104.47 324.909 104.535 324.928 104.587 324.968C104.638 325.009 104.671 325.068 104.679 325.133C104.686 325.196 104.668 325.259 104.629 325.309C104.59 325.359 104.532 325.391 104.47 325.4L70.1654 329.821H70.1331Z" fill="white"/>
<path d="M68.2291 327.529C68.1702 327.53 68.113 327.509 68.0685 327.47C68.0239 327.432 67.995 327.378 67.9871 327.32C67.9826 327.288 67.9844 327.255 67.9926 327.224C68.0007 327.193 68.0149 327.164 68.0344 327.139C68.054 327.113 68.0784 327.092 68.1063 327.076C68.1342 327.06 68.165 327.049 68.1969 327.045L102.501 322.632C102.565 322.627 102.628 322.646 102.678 322.685C102.729 322.723 102.764 322.779 102.775 322.842C102.78 322.875 102.778 322.908 102.769 322.939C102.76 322.971 102.745 323 102.725 323.026C102.705 323.052 102.679 323.073 102.651 323.088C102.622 323.104 102.59 323.113 102.557 323.116L68.2614 327.529H68.2291Z" fill="white"/>
<path d="M66.317 325.238C66.2529 325.238 66.1913 325.213 66.1459 325.167C66.1005 325.122 66.075 325.06 66.075 324.996C66.075 324.932 66.1005 324.87 66.1459 324.825C66.1913 324.78 66.2529 324.754 66.317 324.754L100.621 320.341C100.653 320.337 100.685 320.339 100.716 320.347C100.747 320.355 100.776 320.37 100.802 320.389C100.827 320.409 100.849 320.433 100.865 320.461C100.881 320.488 100.891 320.519 100.896 320.551C100.9 320.583 100.898 320.615 100.889 320.646C100.881 320.677 100.867 320.706 100.847 320.731C100.828 320.757 100.804 320.778 100.776 320.794C100.748 320.81 100.718 320.821 100.686 320.825L66.3816 325.238H66.317Z" fill="white"/>
<path d="M64.4131 322.947C64.3529 322.947 64.2947 322.925 64.25 322.885C64.2052 322.845 64.1771 322.789 64.171 322.729C64.164 322.665 64.1819 322.601 64.221 322.55C64.26 322.499 64.3173 322.465 64.3808 322.455L98.685 318.042C98.7497 318.037 98.8139 318.057 98.8647 318.097C98.9155 318.137 98.9493 318.195 98.9593 318.26C98.9626 318.291 98.9596 318.324 98.9504 318.354C98.9413 318.385 98.9261 318.413 98.9059 318.438C98.8856 318.463 98.8607 318.483 98.8324 318.498C98.8042 318.514 98.7733 318.523 98.7414 318.526L64.4454 322.947H64.4131Z" fill="white"/>
<path d="M62.5091 320.648C62.4449 320.648 62.3833 320.622 62.3379 320.577C62.2925 320.531 62.267 320.47 62.267 320.406C62.267 320.341 62.2925 320.28 62.3379 320.234C62.3833 320.189 62.4449 320.164 62.5091 320.164L96.8132 315.751C96.8771 315.744 96.9413 315.761 96.9924 315.8C97.0435 315.84 97.0775 315.897 97.0875 315.96C97.0921 315.992 97.0902 316.025 97.0821 316.056C97.0739 316.087 97.0597 316.116 97.0402 316.141C97.0206 316.167 96.9962 316.188 96.9683 316.204C96.9404 316.22 96.9097 316.231 96.8778 316.235L62.5091 320.648Z" fill="white"/>
</g>
<path d="M98.814 162.713C98.814 162.713 105.268 164.859 106.882 167.554C108.495 170.248 112.642 184.601 112.642 184.601" stroke="#263238" stroke-width="0.969857" stroke-linecap="round" stroke-linejoin="round"/>
</svg>
