<svg width="360" height="301" viewBox="0 0 360 301" fill="none" xmlns="http://www.w3.org/2000/svg">
<path d="M310.272 79.3655C307.977 74.517 307.995 68.383 306.528 63.3705C302.214 48.5229 290.455 36.7035 275.944 30.5868C241.021 15.9204 232.963 45.2532 196.245 51.2923C159.527 57.3314 146.095 32.3122 104.908 41.8023C63.7212 51.2923 73.565 76.3115 74.4536 97.0688C75.3422 117.826 30.5752 122.951 22.5173 148.022C14.4594 173.093 42.222 183.394 38.6331 201.511C35.0441 219.628 9.98179 229.981 17.1424 246.416C24.3031 262.851 30.5752 266.259 81.6229 253.318C132.671 240.377 198.04 234.338 245.542 243.828C293.044 253.318 327.035 273.161 339.579 267.121C351.977 261.143 345.428 230.499 343.556 220.991C339.441 200.096 322.368 182.401 322.661 161.23C322.842 147.426 336.629 141.12 337.647 127.057C338.57 114.297 331.271 102.797 323.161 93.3418C319.512 89.0885 313.818 85.2752 310.988 80.5302C310.729 80.211 310.514 79.7969 310.272 79.3655Z" fill="#B00000"/>
<path opacity="0.9" d="M310.272 79.3655C307.977 74.517 307.995 68.383 306.528 63.3705C302.214 48.5229 290.455 36.7035 275.944 30.5868C241.021 15.9204 232.963 45.2532 196.245 51.2923C159.527 57.3314 146.095 32.3122 104.908 41.8023C63.7212 51.2923 73.565 76.3115 74.4536 97.0688C75.3422 117.826 30.5752 122.951 22.5173 148.022C14.4594 173.093 42.222 183.394 38.6331 201.511C35.0441 219.628 9.98179 229.981 17.1424 246.416C24.3031 262.851 30.5752 266.259 81.6229 253.318C132.671 240.377 198.04 234.338 245.542 243.828C293.044 253.318 327.035 273.161 339.579 267.121C351.977 261.143 345.428 230.499 343.556 220.991C339.441 200.096 322.368 182.401 322.661 161.23C322.842 147.426 336.629 141.12 337.647 127.057C338.57 114.297 331.271 102.797 323.161 93.3418C319.512 89.0885 313.818 85.2752 310.988 80.5302C310.729 80.211 310.514 79.7969 310.272 79.3655Z" fill="white"/>
<path d="M42.2393 73.9994L116.857 129.922L114.225 236.538" stroke="#263238" stroke-linecap="round" stroke-linejoin="round"/>
<path d="M100.508 134.192L94.6674 240.67" stroke="#263238" stroke-linecap="round" stroke-linejoin="round"/>
<path d="M101.284 120L100.845 128.075" stroke="#263238" stroke-linecap="round" stroke-linejoin="round"/>
<path d="M72.2278 181.116L64.7651 244.837" stroke="#263238" stroke-linecap="round" stroke-linejoin="round"/>
<path d="M81.295 103.091L72.9007 175.362" stroke="#263238" stroke-linecap="round" stroke-linejoin="round"/>
<path d="M51.6344 99.6656L23.1384 250.937" stroke="#263238" stroke-linecap="round" stroke-linejoin="round"/>
<path d="M54.6281 83.7482L52.2297 96.4562" stroke="#263238" stroke-linecap="round" stroke-linejoin="round"/>
<path d="M35.8464 86.4485L48.0886 94.0147" stroke="#263238" stroke-linecap="round" stroke-linejoin="round"/>
<path d="M75.5061 110.95L56.4743 99.1911" stroke="#263238" stroke-linecap="round" stroke-linejoin="round"/>
<path d="M97.1952 124.357L83.7538 116.049" stroke="#263238" stroke-linecap="round" stroke-linejoin="round"/>
<path d="M114.363 134.96L103.321 128.136" stroke="#263238" stroke-linecap="round" stroke-linejoin="round"/>
<path d="M46.8117 99.355L31.1532 90.1669" stroke="#263238" stroke-linecap="round" stroke-linejoin="round"/>
<path d="M74.7469 115.738L55.5857 104.497" stroke="#263238" stroke-linecap="round" stroke-linejoin="round"/>
<path d="M97.5575 129.119L84.1938 121.277" stroke="#263238" stroke-linecap="round" stroke-linejoin="round"/>
<path d="M113.613 138.54L102.82 132.208" stroke="#263238" stroke-linecap="round" stroke-linejoin="round"/>
<path d="M45.4572 107.18L33.9053 101.184" stroke="#263238" stroke-linecap="round" stroke-linejoin="round"/>
<path d="M73.8669 121.924L55.3355 112.305" stroke="#263238" stroke-linecap="round" stroke-linejoin="round"/>
<path d="M97.6265 134.252L83.2966 126.816" stroke="#263238" stroke-linecap="round" stroke-linejoin="round"/>
<path d="M113.544 142.517L102.527 136.797" stroke="#263238" stroke-linecap="round" stroke-linejoin="round"/>
<path d="M43.6973 114.401L35.3806 110.674" stroke="#263238" stroke-linecap="round" stroke-linejoin="round"/>
<path d="M73.6944 127.877L53.2132 118.68" stroke="#263238" stroke-linecap="round" stroke-linejoin="round"/>
<path d="M96.7724 138.238L82.5719 131.863" stroke="#263238" stroke-linecap="round" stroke-linejoin="round"/>
<path d="M113.553 145.77L102.725 140.913" stroke="#263238" stroke-linecap="round" stroke-linejoin="round"/>
<path d="M23.311 225.952L0 226.314" stroke="#263238" stroke-linecap="round" stroke-linejoin="round"/>
<path d="M62.0389 225.348L33.681 225.788" stroke="#263238" stroke-linecap="round" stroke-linejoin="round"/>
<path d="M92.4847 224.865L71.365 225.201" stroke="#263238" stroke-linecap="round" stroke-linejoin="round"/>
<path d="M111.844 224.563L99.3089 224.761" stroke="#263238" stroke-linecap="round" stroke-linejoin="round"/>
<path d="M21.0851 232.716L1.35449 233.63" stroke="#263238" stroke-linecap="round" stroke-linejoin="round"/>
<path d="M61.0381 230.861L32.3351 232.19" stroke="#263238" stroke-linecap="round" stroke-linejoin="round"/>
<path d="M91.9756 229.42L71.5031 230.378" stroke="#263238" stroke-linecap="round" stroke-linejoin="round"/>
<path d="M111.422 228.523L98.8516 229.11" stroke="#263238" stroke-linecap="round" stroke-linejoin="round"/>
<path d="M19.2389 240.644L3.6666 242.076" stroke="#263238" stroke-linecap="round" stroke-linejoin="round"/>
<path d="M60.4601 236.866L30.4199 239.626" stroke="#263238" stroke-linecap="round" stroke-linejoin="round"/>
<path d="M91.5184 234.019L71.1839 235.882" stroke="#263238" stroke-linecap="round" stroke-linejoin="round"/>
<path d="M111.741 232.164L98.6445 233.363" stroke="#263238" stroke-linecap="round" stroke-linejoin="round"/>
<path d="M17.7636 247.839L5.02109 249.392" stroke="#263238" stroke-linecap="round" stroke-linejoin="round"/>
<path d="M59.028 242.827L28.565 246.528" stroke="#263238" stroke-linecap="round" stroke-linejoin="round"/>
<path d="M91.0266 238.936L69.9501 241.498" stroke="#263238" stroke-linecap="round" stroke-linejoin="round"/>
<path d="M111.275 236.477L99.3002 237.935" stroke="#263238" stroke-linecap="round" stroke-linejoin="round"/>
<path d="M68.5353 134.261L74.1516 136.53L72.6505 152.844L66.2145 151.214L68.5353 134.261Z" stroke="#263238" stroke-linecap="round" stroke-linejoin="round"/>
<path d="M90.7678 157.451L92.0015 143.717L96.2117 145.416L95.4611 158.642L90.7678 157.451Z" stroke="#263238" stroke-linecap="round" stroke-linejoin="round"/>
<path d="M33.8104 120.268L42.3687 123.718L38.9178 144.286L30.1869 142.069L33.8104 120.268Z" stroke="#263238" stroke-linecap="round" stroke-linejoin="round"/>
<path d="M109.075 150.601L113.207 152.266L113.113 163.119L109.058 162.093L109.075 150.601Z" stroke="#263238" stroke-linecap="round" stroke-linejoin="round"/>
<path d="M317.761 73.9994L243.143 129.922L245.775 236.538" stroke="#263238" stroke-linecap="round" stroke-linejoin="round"/>
<path d="M259.492 134.192L265.333 240.67" stroke="#263238" stroke-linecap="round" stroke-linejoin="round"/>
<path d="M258.715 120L259.155 128.075" stroke="#263238" stroke-linecap="round" stroke-linejoin="round"/>
<path d="M287.772 181.116L295.235 244.837" stroke="#263238" stroke-linecap="round" stroke-linejoin="round"/>
<path d="M278.705 103.091L287.099 175.362" stroke="#263238" stroke-linecap="round" stroke-linejoin="round"/>
<path d="M308.366 99.6656L336.862 250.937" stroke="#263238" stroke-linecap="round" stroke-linejoin="round"/>
<path d="M305.372 83.7482L307.77 96.4562" stroke="#263238" stroke-linecap="round" stroke-linejoin="round"/>
<path d="M311.911 94.0147L324.154 86.4485" stroke="#263238" stroke-linecap="round" stroke-linejoin="round"/>
<path d="M284.494 110.95L303.526 99.1911" stroke="#263238" stroke-linecap="round" stroke-linejoin="round"/>
<path d="M262.805 124.357L276.246 116.049" stroke="#263238" stroke-linecap="round" stroke-linejoin="round"/>
<path d="M245.636 134.96L256.679 128.136" stroke="#263238" stroke-linecap="round" stroke-linejoin="round"/>
<path d="M313.188 99.355L328.847 90.1669" stroke="#263238" stroke-linecap="round" stroke-linejoin="round"/>
<path d="M285.253 115.738L304.414 104.497" stroke="#263238" stroke-linecap="round" stroke-linejoin="round"/>
<path d="M262.442 129.119L275.806 121.277" stroke="#263238" stroke-linecap="round" stroke-linejoin="round"/>
<path d="M246.387 138.54L257.18 132.208" stroke="#263238" stroke-linecap="round" stroke-linejoin="round"/>
<path d="M314.543 107.18L326.095 101.184" stroke="#263238" stroke-linecap="round" stroke-linejoin="round"/>
<path d="M286.133 121.924L304.664 112.305" stroke="#263238" stroke-linecap="round" stroke-linejoin="round"/>
<path d="M262.373 134.252L276.703 126.816" stroke="#263238" stroke-linecap="round" stroke-linejoin="round"/>
<path d="M246.456 142.517L257.473 136.797" stroke="#263238" stroke-linecap="round" stroke-linejoin="round"/>
<path d="M316.303 114.401L324.619 110.674" stroke="#263238" stroke-linecap="round" stroke-linejoin="round"/>
<path d="M286.306 127.877L306.787 118.68" stroke="#263238" stroke-linecap="round" stroke-linejoin="round"/>
<path d="M263.228 138.238L277.428 131.863" stroke="#263238" stroke-linecap="round" stroke-linejoin="round"/>
<path d="M246.447 145.77L257.275 140.913" stroke="#263238" stroke-linecap="round" stroke-linejoin="round"/>
<path d="M336.689 225.952L360 226.314" stroke="#263238" stroke-linecap="round" stroke-linejoin="round"/>
<path d="M297.961 225.348L326.319 225.788" stroke="#263238" stroke-linecap="round" stroke-linejoin="round"/>
<path d="M267.515 224.865L288.635 225.201" stroke="#263238" stroke-linecap="round" stroke-linejoin="round"/>
<path d="M248.156 224.563L260.691 224.761" stroke="#263238" stroke-linecap="round" stroke-linejoin="round"/>
<path d="M338.915 232.716L358.645 233.63" stroke="#263238" stroke-linecap="round" stroke-linejoin="round"/>
<path d="M298.962 230.861L327.665 232.19" stroke="#263238" stroke-linecap="round" stroke-linejoin="round"/>
<path d="M268.024 229.42L288.497 230.378" stroke="#263238" stroke-linecap="round" stroke-linejoin="round"/>
<path d="M248.578 228.523L261.148 229.11" stroke="#263238" stroke-linecap="round" stroke-linejoin="round"/>
<path d="M340.761 240.644L356.333 242.076" stroke="#263238" stroke-linecap="round" stroke-linejoin="round"/>
<path d="M299.54 236.866L329.58 239.626" stroke="#263238" stroke-linecap="round" stroke-linejoin="round"/>
<path d="M268.482 234.019L288.816 235.882" stroke="#263238" stroke-linecap="round" stroke-linejoin="round"/>
<path d="M248.259 232.164L261.355 233.363" stroke="#263238" stroke-linecap="round" stroke-linejoin="round"/>
<path d="M342.236 247.839L354.979 249.392" stroke="#263238" stroke-linecap="round" stroke-linejoin="round"/>
<path d="M300.972 242.827L331.435 246.528" stroke="#263238" stroke-linecap="round" stroke-linejoin="round"/>
<path d="M268.973 238.936L290.05 241.498" stroke="#263238" stroke-linecap="round" stroke-linejoin="round"/>
<path d="M248.725 236.477L260.7 237.935" stroke="#263238" stroke-linecap="round" stroke-linejoin="round"/>
<path d="M291.465 134.261L285.848 136.53L287.349 152.844L293.785 151.214L291.465 134.261Z" stroke="#263238" stroke-linecap="round" stroke-linejoin="round"/>
<path d="M269.232 157.451L267.998 143.717L263.788 145.416L264.539 158.642L269.232 157.451Z" stroke="#263238" stroke-linecap="round" stroke-linejoin="round"/>
<path d="M326.19 120.268L317.631 123.718L321.082 144.286L329.813 142.069L326.19 120.268Z" stroke="#263238" stroke-linecap="round" stroke-linejoin="round"/>
<path d="M250.925 150.601L246.793 152.266L246.887 163.119L250.942 162.093L250.925 150.601Z" stroke="#263238" stroke-linecap="round" stroke-linejoin="round"/>
<path d="M45.4141 255.587C65.74 251.843 93.0886 246.804 113.88 242.939" stroke="#263238" stroke-linecap="round" stroke-linejoin="round"/>
<path d="M17.0389 260.763L38.2189 256.872" stroke="#263238" stroke-linecap="round" stroke-linejoin="round"/>
<path d="M327.371 258.175C305.665 252.999 270.276 244.76 245.757 240.204" stroke="#263238" stroke-linecap="round" stroke-linejoin="round"/>
<path d="M349.846 262.851C349.846 262.851 344.781 261.626 336.663 259.642" stroke="#263238" stroke-linecap="round" stroke-linejoin="round"/>
<path d="M100.146 117.93L104.951 63.6638L69.2341 23.8316" stroke="#263238" stroke-linecap="round" stroke-linejoin="round"/>
<path d="M251.934 123.425L249.191 64.354L292.457 23.8316" stroke="#263238" stroke-linecap="round" stroke-linejoin="round"/>
<path d="M152.695 275.145C152.695 275.145 139.314 277.535 129.755 281.365C120.196 285.196 155.567 284.713 147.915 286.145C140.263 287.577 116.857 290.924 125.924 296.178C134.991 301.432 204.32 302.399 224.396 297.619C244.472 292.839 189.024 281.365 199.066 277.06C209.108 272.755 219.617 277.06 219.142 271.323C218.668 265.586 199.567 258.641 196.452 258.77C193.338 258.9 213.405 267.027 201.931 269.416C190.456 271.806 167.991 269.39 152.695 275.145Z" fill="#B00000"/>
<path opacity="0.6" d="M152.695 275.145C152.695 275.145 139.314 277.535 129.755 281.365C120.196 285.196 155.567 284.713 147.915 286.145C140.263 287.577 116.857 290.924 125.924 296.178C134.991 301.432 204.32 302.399 224.396 297.619C244.472 292.839 189.024 281.365 199.066 277.06C209.108 272.755 219.617 277.06 219.142 271.323C218.668 265.586 199.567 258.641 196.452 258.77C193.338 258.9 213.405 267.027 201.931 269.416C190.456 271.806 167.991 269.39 152.695 275.145Z" fill="white"/>
<path d="M181.251 66.485C181.251 66.485 172.434 69.6771 169.432 70.9884C166.429 72.2998 156.87 73.4299 155.369 74.3703C153.868 75.3107 116.546 116.575 117.288 117.326C118.03 118.076 126.476 118.447 128.918 117.886C131.359 117.326 161.745 87.8721 161.745 87.8721C161.745 87.8721 165.687 88.0619 165.687 91.0642C165.687 94.0665 167.559 126.704 167.559 126.704L206.382 125.953L206.572 86.3709C206.572 86.3709 206.943 82.4368 209.945 82.618C212.948 82.7992 245.033 94.2563 245.033 94.2563L254.195 86.3709C254.195 86.3709 221.739 73.8009 215.544 69.8669C209.35 65.9328 207.668 61.8004 205.192 61.8004C202.716 61.8004 181.251 66.485 181.251 66.485Z" fill="white"/>
<g style="mix-blend-mode:multiply">
<path d="M248.622 84.1796L246.43 86.5434L238.985 83.5929L240.71 81.0047L239.485 80.513L237.76 83.1012C235.172 82.0659 232.661 81.0565 230.547 80.1937L232.023 77.4503L230.823 76.9499L229.348 79.702C227.122 78.8393 225.492 78.1146 224.957 77.8471C224.241 77.4848 222.929 76.8118 221.351 75.975L221.851 73.0417L220.635 72.4809L220.143 75.3366C217.667 74.008 214.759 72.4206 212.378 71.0229L212.111 67.2614C211.61 66.8301 211.153 66.3987 210.722 66.0105L211.024 70.2292C209.912 69.6053 208.846 68.9048 207.832 68.1328C205.373 66.0191 205.019 66.0191 204.803 66.0191V66.1399C204.407 63.914 204.148 62.3697 204.139 62.318L202.862 62.5337C202.862 62.7235 203.138 64.1987 203.509 66.2779L200.498 66.8991V62.525L199.204 62.7666V67.1665L193.424 68.3571V63.9227L192.139 64.1901V68.6245L185.746 69.9445L185.53 65.5705L184.253 65.8466L184.469 70.212L175.238 72.1186L174.711 68.9092L173.478 69.3751L173.97 72.386L170.139 73.1711L169.785 70.8418L169.466 70.9798C169.167 71.1073 168.862 71.2196 168.552 71.3163L168.871 73.4386L162.176 74.8189L161.84 72.8174L160.571 73.059L160.908 75.0864L156.698 75.9491L156.033 74.0943C155.814 74.1595 155.603 74.2492 155.404 74.3617C155.226 74.4923 155.061 74.6396 154.912 74.8017L155.447 76.2856L151.064 81.4102L150.089 79.8745L149.226 80.8581L150.227 82.4455L142.126 91.9355L140.521 90.3998L139.659 91.3575L141.289 92.919L135.121 100.131L133.119 98.6475L132.257 99.6138L134.284 101.115L126.994 109.647L124.639 108.276L123.776 109.276L126.14 110.648L119.937 117.904C120.428 117.955 120.963 118.007 121.524 118.042L127.279 111.304L129.194 112.417L123.888 118.145C124.483 118.145 125.079 118.145 125.613 118.145L130.315 113.072L132.3 114.22L128.685 117.93L128.97 117.878C129.686 117.714 132.8 115.065 136.846 111.407L141.583 106.55L141.893 106.783L142.851 105.92L142.488 105.644L148.295 99.6828L148.881 100.252L149.83 99.3895L149.201 98.7856L156.102 91.7371L156.775 92.7982L157.724 91.8837L157.025 90.7794L159.691 88.0446L160.209 89.4854L161.236 88.5018L160.761 87.1819L162.875 86.785L163.099 88.1481C163.602 88.2826 164.08 88.4982 164.514 88.7865L164.152 86.5434L170.717 85.3097L171.666 91.5732L165.722 92.5308C165.722 92.9104 165.722 93.3504 165.782 93.8335L171.778 92.8069L172.589 98.1817L166.196 99.4326L165.989 98.1817C166.162 101.633 166.395 105.8 166.619 109.932L167.706 116.515L166.999 116.791C166.999 117.257 167.05 117.705 167.076 118.145L167.939 117.809L169.397 126.652H170.708L169.181 117.386C171.235 116.644 173.262 116.014 175.22 115.488L176.894 126.531H178.206L176.48 115.195C177.921 114.832 179.336 114.53 180.742 114.28L182.718 126.445H184.02L182.01 114.082C183.554 113.832 185.073 113.642 186.557 113.495L187.152 125.573L186.289 126.436H188.153L188.481 126.117L187.859 113.461C189.378 113.348 190.862 113.288 192.32 113.271L192.38 126.358H193.674L193.614 113.297C195.469 113.297 197.263 113.409 199.006 113.564L198.98 126.1H200.274L200.317 113.564C202.474 113.806 204.527 114.131 206.477 114.539V113.236C204.519 112.848 202.465 112.52 200.317 112.287V104.376C202.381 104.444 204.44 104.616 206.486 104.894V103.6C204.439 103.328 202.381 103.161 200.317 103.099V94.0233L206.503 92.7896V91.4696L200.317 92.7033V87.9411L206.503 86.8799V86.414C206.539 86.1225 206.596 85.8341 206.676 85.5513L200.317 86.6383V79.7365L205.873 78.6926C206.174 80.0247 206.551 81.3382 207.003 82.6266L208.211 82.1694C207.817 81.0536 207.489 79.9157 207.228 78.7616L211.705 81.5741L211.921 83.0408C212.318 83.1443 212.784 83.2737 213.241 83.4204L213.163 82.3419L216.459 84.4125C217.995 84.9043 219.72 85.4737 221.54 86.0776L219.815 84.9905L220.281 82.3074C222.153 83.2564 224.206 84.2831 226.32 85.3356L225.259 87.3544L226.501 87.7771L227.493 85.9223C229.555 86.9403 231.686 87.9756 233.774 88.9936L233.067 90.0375L234.335 90.4775L234.956 89.563C237.052 90.581 239.106 91.5645 240.995 92.4704L240.753 92.7292L242.082 93.2037L242.211 93.0571L243.782 93.8076L245.015 94.2476L245.982 93.3849L243.126 92.0304L246.784 88.036L250.502 89.5026L251.615 88.5536L247.724 87.0093L249.898 84.6454L248.622 84.1796ZM192.156 79.909L186.255 81.0133L186.013 76.0785L192.13 74.6809L192.156 79.909ZM192.156 69.9531V73.3609L185.979 74.7585L185.806 71.2645L192.156 69.9531ZM185.746 96.8444L186.091 103.867C184.193 104.126 182.321 104.436 180.518 104.73L179.431 98.0609L185.746 96.8444ZM185.677 95.5417L179.224 96.8444L178.361 91.6681L185.409 90.4602L185.677 95.5417ZM185.366 89.123L178.171 90.3567L177.136 84.007L185.038 82.5231L185.366 89.123ZM177.955 97.0774L173.866 97.8883L173.055 92.548L177.101 91.8492L177.955 97.0774ZM184.969 81.2204L176.929 82.7302L176.204 78.2699L184.736 76.3287L184.969 81.2204ZM184.495 71.4974L184.667 75.0174L176.04 76.993L175.453 73.3695L184.495 71.4974ZM161.08 76.3373L161.727 80.2455L158.88 80.8926L158.716 80.4094L158.397 80.7545L157.103 77.1569L161.08 76.3373ZM155.904 77.666L157.396 81.8243L153.782 85.7325L151.746 82.5317L155.904 77.666ZM150.874 83.5584L152.876 86.716L145.232 94.9637L142.98 92.7982L150.874 83.5584ZM142.135 93.7817L144.369 95.9817L138.27 102.564L136.087 100.942L142.135 93.7817ZM130.013 111.407L128.046 110.269L135.233 101.857L137.381 103.444L130.013 111.407ZM133.171 113.236L131.161 112.072L138.425 104.221L140.47 105.739L133.171 113.236ZM141.384 104.807L139.305 103.272L145.292 96.8013L147.303 98.7338L141.384 104.807ZM148.2 97.8021L146.172 95.8523L153.592 87.8462L155.317 90.5206L148.2 97.8021ZM156.223 89.5716L154.498 86.8626L157.888 83.196L159.113 86.6038L156.223 89.5716ZM160.537 85.8015L159.294 82.178L161.943 81.5741L162.59 85.465L160.537 85.8015ZM162.349 76.1389L169.035 74.7585L169.604 78.52L162.987 80.0212L162.349 76.1389ZM163.85 85.2493L163.203 81.298L169.794 79.7969L170.441 84.0156L163.85 85.2493ZM170.303 74.4997L174.142 73.706L174.737 77.3467L170.864 78.2095L170.303 74.4997ZM171.709 83.7741L171.062 79.5122L174.944 78.6495L175.686 83.0408L171.709 83.7741ZM171.908 85.0509L175.868 84.309L176.894 90.6414L172.857 91.3316L171.908 85.0509ZM167.594 107.965L166.412 100.761L172.788 99.493L173.823 106.291C171.58 106.809 169.483 107.378 167.594 107.931V107.965ZM168.94 116.109L167.81 109.207C169.69 108.655 171.778 108.086 174.013 107.534L175.022 114.194C173.029 114.72 171.002 115.341 168.94 116.075V116.109ZM175.082 105.989L174.056 99.2428L178.162 98.3801L179.241 105.049C177.817 105.342 176.428 105.644 175.082 105.955V105.989ZM176.282 113.909L175.272 107.266C176.618 106.947 178.016 106.645 179.448 106.352L180.526 112.995C179.137 113.236 177.722 113.521 176.282 113.875V113.909ZM181.803 112.779L180.725 106.11C182.45 105.774 184.305 105.472 186.151 105.247L186.496 112.21C184.961 112.319 183.396 112.497 181.803 112.745V112.779ZM186.324 82.3506L192.164 81.2549V88.0187L186.626 88.9677L186.324 82.3506ZM186.712 90.2704L192.199 89.3301V94.308L186.936 95.3519L186.712 90.2704ZM187.023 96.6633L192.199 95.628V103.28C190.551 103.401 188.921 103.556 187.307 103.764L187.023 96.6633ZM187.782 112.072L187.437 105.04C189.036 104.839 190.646 104.678 192.268 104.557V111.882C190.827 111.865 189.326 111.925 187.765 112.037L187.782 112.072ZM198.997 112.149C197.272 111.994 195.451 111.899 193.597 111.882V104.471C195.417 104.367 197.246 104.316 199.066 104.342L198.997 112.149ZM198.997 103.065C197.177 103.065 195.348 103.065 193.528 103.194L193.484 95.3692L199.066 94.2562L198.997 103.065ZM199.04 92.9449L193.484 94.0492V89.1144L199.084 88.1481L199.04 92.9449ZM199.04 86.8368L193.424 87.803V81.0133L199.092 79.9522L199.04 86.8368ZM199.04 78.6322L193.364 79.702V74.4221L199.092 73.1194L199.04 78.6322ZM199.04 71.7908L193.303 73.0935V69.7202L199.075 68.5296L199.04 71.7908ZM200.352 68.2622L203.604 67.5893C203.777 68.5383 203.967 69.5649 204.165 70.6261L200.343 71.4888L200.352 68.2622ZM200.309 78.3906V72.826L204.389 71.8943C204.752 73.7578 205.149 75.673 205.545 77.4071L200.309 78.3906ZM205.485 70.3241H205.416C205.235 69.3837 205.062 68.4606 204.907 67.6065C205.261 67.8481 205.847 68.3053 206.84 69.1508C208.157 70.1391 209.54 71.0356 210.981 71.8339L211.265 75.7248C208.617 73.2919 206.132 70.5484 206.089 70.5484L205.606 70.9798L205.485 70.3241ZM207.28 77.226L206.96 77.7177C206.555 75.9923 206.141 73.9735 205.752 72.0064C206.762 73.1021 208.927 75.3711 211.067 77.2777L211.395 77.5279L211.559 79.9177L207.28 77.226ZM218.495 84.2745L212.922 80.7718L212.749 78.3906C214.181 79.2534 216.347 80.3836 218.935 81.7122L218.495 84.2745ZM219.159 80.3835C216.157 78.8306 213.828 77.571 212.637 76.8118L212.335 72.5845C214.751 73.9648 217.511 75.4574 219.798 76.6738L219.159 80.3835ZM226.812 84.2227C224.491 83.0839 222.317 81.9882 220.367 80.9961L220.997 77.3122C222.489 78.0973 223.68 78.7099 224.258 79.0377C224.836 79.3655 226.415 79.9867 228.615 80.8839L226.812 84.2227ZM234.378 87.9238C232.204 86.8713 230.064 85.8187 227.968 84.7921L229.814 81.3412L236.897 84.1968L234.378 87.9238ZM241.789 91.4869L235.551 88.4932L238.139 84.6886L245.395 87.5701L241.789 91.4869Z" fill="#B00000"/>
</g>
<path d="M181.251 66.485C181.251 66.485 172.434 69.6771 169.432 70.9884C166.429 72.2998 156.87 73.4299 155.369 74.3703C153.868 75.3107 116.546 116.575 117.288 117.326C118.03 118.076 126.476 118.447 128.918 117.886C131.359 117.326 161.745 87.8721 161.745 87.8721C161.745 87.8721 165.687 88.0619 165.687 91.0642C165.687 94.0665 167.559 126.704 167.559 126.704L206.382 125.953L206.572 86.3709C206.572 86.3709 206.943 82.4369 209.945 82.618C212.948 82.7992 245.033 94.2563 245.033 94.2563L254.195 86.3709C254.195 86.3709 221.739 73.8009 215.544 69.8669C209.35 65.9328 207.668 61.8004 205.192 61.8004C202.716 61.8004 181.251 66.485 181.251 66.485Z" stroke="#263238" stroke-miterlimit="10"/>
<path d="M187.497 102.884C188.049 107.853 188.196 117.55 188.196 117.55" stroke="#263238" stroke-miterlimit="10"/>
<path d="M187.1 100.295C186.238 94.5237 184.633 74.2237 184.633 74.2237" stroke="#263238" stroke-miterlimit="10"/>
<path d="M208.738 82.6094L218.409 79.7538" stroke="#263238" stroke-linecap="round" stroke-linejoin="round"/>
<path d="M219.72 79.3138L222.8 78.6581" stroke="#263238" stroke-linecap="round" stroke-linejoin="round"/>
<path d="M211.153 81.9537H223.68" stroke="#263238" stroke-linecap="round" stroke-linejoin="round"/>
<path d="M150.538 84.1537L161.745 87.8721L155.593 87.8807" stroke="#263238" stroke-linecap="round" stroke-linejoin="round"/>
<path d="M153.618 88.105H150.762" stroke="#263238" stroke-linecap="round" stroke-linejoin="round"/>
<path d="M188.092 78.1059C188.092 78.6581 187.799 79.0981 187.437 79.0981C187.074 79.0981 186.781 78.6581 186.781 78.1059C186.781 77.5538 187.074 77.1224 187.437 77.1224C187.799 77.1224 188.092 77.5624 188.092 78.1059Z" stroke="#263238" stroke-linecap="round" stroke-linejoin="round"/>
<path d="M189.197 88.7607C189.197 89.3042 188.895 89.7528 188.532 89.7528C188.17 89.7528 187.877 89.3042 187.877 88.7607C187.877 88.2172 188.17 87.7772 188.532 87.7772C188.895 87.7772 189.197 88.2172 189.197 88.7607Z" stroke="#263238" stroke-linecap="round" stroke-linejoin="round"/>
<path d="M189.852 101.831C190.214 101.831 190.508 101.387 190.508 100.839C190.508 100.291 190.214 99.8467 189.852 99.8467C189.49 99.8467 189.197 100.291 189.197 100.839C189.197 101.387 189.49 101.831 189.852 101.831Z" stroke="#263238" stroke-linecap="round" stroke-linejoin="round"/>
<path d="M190.732 112.261C190.732 112.805 190.439 113.254 190.077 113.254C189.714 113.254 189.412 112.805 189.412 112.261C189.412 111.718 189.706 111.278 190.077 111.278C190.448 111.278 190.732 111.718 190.732 112.261Z" stroke="#263238" stroke-linecap="round" stroke-linejoin="round"/>
<path d="M177.144 64.7164L176.126 65.3893C175.149 66.0475 174.349 66.9364 173.797 67.9775L171.511 72.248L177.55 77.4762L182.355 70.5743L191.336 76.415L194.666 68.892L192.553 65.8466C192.161 65.2849 191.647 64.8192 191.049 64.4846C190.451 64.1499 189.786 63.9548 189.102 63.914C185.418 63.6466 178.076 63.3188 177.144 64.7164Z" fill="white" stroke="#263238" stroke-miterlimit="10"/>
<path d="M176.187 58.9879C176.187 58.9879 176.566 68.9265 177.688 69.3406C178.809 69.7547 182.002 72.1531 183.882 72.1531C185.763 72.1531 188.386 68.4002 188.567 67.8395C188.748 67.2787 187.816 57.7024 187.816 57.7024L176.937 58.8326L176.187 58.9879Z" fill="white"/>
<g style="mix-blend-mode:multiply" opacity="0.5">
<path d="M187.816 57.6679L176.937 58.7981L176.187 58.9879C176.187 58.9879 176.307 62.2058 176.627 65.027C178.845 65.4611 181.109 65.6089 183.365 65.467C185.092 65.3975 186.799 65.0689 188.429 64.4921C188.196 61.5588 187.816 57.6679 187.816 57.6679Z" fill="#B00000"/>
</g>
<path d="M176.187 58.9879C176.187 58.9879 176.566 68.9265 177.688 69.3406C178.809 69.7547 182.002 72.1531 183.882 72.1531C185.763 72.1531 188.386 68.4002 188.567 67.8395C188.748 67.2787 187.816 57.7024 187.816 57.7024L176.937 58.8326L176.187 58.9879Z" stroke="#263238" stroke-miterlimit="10"/>
<path d="M167.922 42.8548C167.922 42.8548 165.86 38.5411 162.858 40.2666C159.855 41.9921 164.178 47.5826 166.8 48.8939C169.423 50.2053 170.553 50.0155 170.553 50.0155L167.922 42.8548Z" fill="white" stroke="#263238" stroke-miterlimit="10"/>
<path d="M193.062 41.7074C193.062 41.7074 193.881 36.9969 197.229 37.8078C200.576 38.6188 197.936 45.2101 195.762 47.1857C193.588 49.1614 192.458 49.2821 192.458 49.2821L193.062 41.7074Z" fill="white" stroke="#263238" stroke-miterlimit="10"/>
<path d="M166.999 41.9144C166.999 41.9144 167.068 42.1387 167.206 42.5356C168.008 44.934 170.933 53.6217 172.063 56.3393C173.374 59.5314 178.438 63.0944 185.194 61.9729C191.949 60.8513 193.821 52.966 193.821 49.9637C193.821 46.9614 192.32 23.7022 192.32 23.7022C192.32 23.7022 184.253 15.4459 177.653 12.8232C171.053 10.2005 167.896 13.1941 165.463 17.6976C163.03 22.201 161.71 24.8237 162.461 27.826C163.211 30.8283 166.999 41.9144 166.999 41.9144Z" fill="white"/>
<g style="mix-blend-mode:multiply" opacity="0.5">
<path d="M169.647 29.6119C172.175 26.808 172.175 21.2003 172.175 21.2003C176.238 23.9639 180.674 26.134 185.349 27.6449C187.726 28.3249 190.184 28.6818 192.656 28.706C192.466 25.7641 192.337 23.7194 192.337 23.7194C192.337 23.7194 184.271 15.4631 177.671 12.8404C171.071 10.2177 167.913 13.2114 165.48 17.7148C163.047 22.2183 161.727 24.841 162.478 27.8433C162.814 29.2064 163.772 32.226 164.721 35.1247C165.221 34.5726 167.404 32.0879 169.647 29.6119Z" fill="#B00000"/>
</g>
<g style="mix-blend-mode:multiply" opacity="0.5">
<path d="M190.655 54.5707C187.851 59.0569 184.486 60.7392 178.887 59.0569C173.831 57.5385 170.148 50.5676 169.466 49.1959C170.45 52.0515 171.485 54.9762 172.054 56.3652C173.366 59.5573 178.43 63.1203 185.185 61.9988C191.94 60.8772 193.812 52.9919 193.812 49.9896C193.812 48.9888 193.648 45.6759 193.424 41.8023" fill="#B00000"/>
</g>
<path d="M166.999 41.9144C166.999 41.9144 167.068 42.1387 167.206 42.5356C168.008 44.934 170.933 53.6217 172.063 56.3393C173.374 59.5314 178.438 63.0944 185.194 61.9729C191.949 60.8513 193.821 52.966 193.821 49.9637C193.821 46.9614 192.32 23.7022 192.32 23.7022C192.32 23.7022 184.253 15.4459 177.653 12.8232C171.053 10.2005 167.896 13.1941 165.463 17.6976C163.03 22.201 161.71 24.8237 162.461 27.826C163.211 30.8283 166.999 41.9144 166.999 41.9144Z" stroke="#263238" stroke-miterlimit="10"/>
<path d="M173.366 31.9672C173.461 32.735 173.159 33.4079 172.693 33.4597C172.227 33.5114 171.778 32.9334 171.692 32.1656C171.606 31.3978 171.899 30.7248 172.365 30.6644C172.831 30.604 173.279 31.1993 173.366 31.9672Z" fill="#263238"/>
<path d="M186.496 30.466C186.591 31.2424 186.289 31.9067 185.823 31.9585C185.358 32.0103 184.918 31.4322 184.823 30.6644C184.728 29.8966 185.038 29.2237 185.496 29.1719C185.953 29.1201 186.41 29.6982 186.496 30.466Z" fill="#263238"/>
<path d="M168.871 26.7217C168.871 26.7217 171.122 23.5296 174.496 24.6598" stroke="#263238" stroke-width="2" stroke-linecap="round" stroke-linejoin="round"/>
<path d="M180.88 41.9144L182.752 40.0423L181.441 32.3467" stroke="#263238" stroke-linecap="round" stroke-linejoin="round"/>
<path d="M174.496 44.5371C174.895 45.5132 175.569 46.3524 176.435 46.9527C177.302 47.5531 178.325 47.8888 179.379 47.919" stroke="#263238" stroke-linecap="round" stroke-linejoin="round"/>
<path d="M170.001 16.0239C170.001 16.0239 172.253 20.3375 170.752 22.7791C169.25 25.2206 166.619 25.7814 165.498 27.0927C164.376 28.4041 164.747 34.7883 165.498 36.4706C166.138 38.2438 166.639 40.0638 166.999 41.9144C166.999 41.9144 162.305 33.6581 160.96 31.2252C159.614 28.7923 156.266 20.3375 159.234 15.6961C162.202 11.0546 165.428 14.5659 166.55 11.9432C167.672 9.32048 168.051 4.06646 177.429 1.43513C186.807 -1.19619 191.5 4.02332 192.812 7.06876C194.123 10.1142 198.851 12.504 202.379 11.5636C205.908 10.6232 203.509 9.50166 203.509 9.50166C203.509 9.50166 207.633 9.50166 206.693 15.3165C205.752 21.1313 200.697 24.8841 193.562 25.0739C186.427 25.2637 175.065 23.3398 170.001 16.0239Z" fill="#263238" stroke="#263238" stroke-miterlimit="10"/>
<path d="M169.199 12.6851C169.199 12.6851 177.671 5.20526 182.588 5.39506C187.506 5.58486 190.068 14.0224 195.978 13.8584" stroke="white" stroke-width="0.5" stroke-miterlimit="10"/>
<path d="M167.43 13.8671L170.579 16.6278C170.579 16.6278 175.307 11.9001 181.415 14.0396C187.523 16.1792 193.036 23.0983 198.747 22.5116C204.458 21.925 206.425 16.0066 205.649 12.6593" stroke="white" stroke-width="0.5" stroke-miterlimit="10"/>
<path d="M167.818 15.2474C167.818 15.2474 164.272 14.2639 162.702 17.2145C161.132 20.165 163.09 24.3061 163.09 24.3061" stroke="white" stroke-width="0.5" stroke-miterlimit="10"/>
<path d="M170.579 16.6105C170.579 16.6105 168.414 16.809 168.414 19.7595C168.414 22.7101 167.818 24.6857 165.653 25.6692C163.487 26.6527 162.702 27.4464 163.487 28.6284" stroke="white" stroke-width="0.5" stroke-miterlimit="10"/>
<path d="M198.117 28.4472C197.419 26.5406 194.572 25.859 191.871 25.5053C189.171 25.1516 182.459 27.1445 181.294 27.4896C180.499 27.1418 179.631 26.9946 178.766 27.0608C177.901 27.1269 177.066 27.4045 176.333 27.8692C174.746 27.8692 168.077 27.8002 165.756 28.8182C163.263 29.9225 160.692 31.3115 160.537 33.3389C160.425 34.8659 161.831 35.7114 162.996 36.0651C163.539 38.5325 165.532 42.3372 170.079 42.1042C175.824 41.8282 178.283 38.5412 178.145 35.5906C178.059 33.7789 177.671 30.4832 177.507 29.1719C177.988 28.9072 178.526 28.7613 179.075 28.7463C179.624 28.7313 180.169 28.8476 180.664 29.0856C180.863 30.4315 181.372 33.6408 181.769 35.3836C182.433 38.2565 185.694 40.7584 191.259 39.4729C195.684 38.4462 196.582 34.2534 196.435 31.7083C197.548 31.0785 198.678 29.888 198.117 28.4472ZM169.992 40.396C165.428 40.6117 164.635 35.4526 164.6 35.2196C164.574 35.0409 164.493 34.8748 164.368 34.7448C164.242 34.6148 164.079 34.5274 163.901 34.4949C163.47 34.4173 162.219 34.0032 162.262 33.451C162.323 32.5883 163.738 31.5789 166.455 30.3797C168.138 29.898 169.881 29.654 171.632 29.655C173.167 29.5774 174.703 29.5601 175.799 29.5688C175.971 30.975 176.325 34.0204 176.402 35.6769C176.549 37.2125 175.281 40.1458 170.027 40.396H169.992ZM195.193 30.4833C195.035 30.5615 194.905 30.6861 194.82 30.8403C194.735 30.9945 194.7 31.1709 194.718 31.346C194.718 31.5703 195.374 36.7467 190.922 37.7733C185.798 38.9466 183.805 36.462 183.46 34.9781C183.114 33.4942 182.597 30.3366 182.398 28.939C183.442 28.637 184.926 28.2402 186.427 27.8951C188.111 27.4171 189.854 27.179 191.604 27.1876C194.546 27.6104 196.176 28.2229 196.47 29.008C196.72 29.5515 195.633 30.2848 195.227 30.4833H195.193Z" fill="#263238"/>
<path d="M138.787 221.328L147.604 237.116L149.502 225.037C149.502 225.037 142.23 220.965 138.787 221.328Z" fill="#B00000" stroke="#263238" stroke-miterlimit="10"/>
<path d="M191.759 228.376C191.759 228.376 187.635 230.628 186.315 232.69C184.995 234.752 182.942 235.502 184.814 238.125C187.076 241.479 188.665 245.242 189.49 249.203C190.241 253.145 193.243 256.329 196.435 258.77C199.627 261.212 204.683 261.773 205.243 258.96C205.804 256.148 198.868 244.699 198.342 242.637C197.847 240.805 197.718 238.894 197.962 237.012C198.117 234.942 194.951 227.255 191.759 228.376Z" fill="#263238" stroke="#263238" stroke-miterlimit="10"/>
<path d="M205.252 259.038C204.536 259.408 203.752 259.629 202.948 259.685C202.144 259.741 201.337 259.633 200.576 259.366C195.322 257.864 192.881 251.679 190.223 244.923C188.799 241.352 186.876 238 184.512 234.968C183.917 235.83 183.736 236.693 184.78 238.168C187.049 241.507 188.649 245.254 189.49 249.203C190.241 253.145 193.243 256.329 196.435 258.77C199.627 261.212 204.64 261.764 205.252 259.038Z" fill="white" stroke="#263238" stroke-miterlimit="10"/>
<path d="M195.883 224.813C195.883 224.813 189.697 228.756 189.507 230.628C189.317 232.5 191.008 238.324 191.759 239.255C192.51 240.187 194.761 236.063 195.512 237.185L197.384 240.006L198.135 234.933L195.883 224.813Z" fill="white" stroke="#263238" stroke-miterlimit="10"/>
<path d="M147.415 223.95L145.353 252.084L157.353 268.597L158.294 230.706L147.415 223.95Z" fill="white"/>
<g style="mix-blend-mode:multiply" opacity="0.5">
<path d="M146.569 235.485L148.976 235.632C152.212 235.933 155.334 236.981 158.095 238.695L158.294 230.706L147.415 223.95L146.569 235.485Z" fill="#B00000"/>
</g>
<path d="M147.415 223.95L145.353 252.084L157.353 268.597L158.294 230.706L147.415 223.95Z" stroke="#263238" stroke-miterlimit="10"/>
<path d="M157.854 248.469C154.707 245.232 150.524 243.202 146.034 242.732L145.353 252.136L157.353 268.64L157.854 248.469Z" fill="white" stroke="#263238" stroke-miterlimit="10"/>
<path d="M157.569 276.102C157.569 276.102 158.509 270.469 157.569 266.535C156.629 262.601 150.253 251.868 144.059 245.338C137.864 238.807 129.246 225.823 123.802 220.577C118.358 215.332 111.611 216.635 111.611 225.452C111.611 234.269 117.047 249.461 125.113 257.528C133.18 265.594 144.628 274.567 147.596 276.102C150.564 277.638 153.98 278.88 157.569 276.102Z" fill="#263238" stroke="#263238" stroke-miterlimit="10"/>
<path d="M157.957 271.116C155.393 267.624 152.36 264.503 148.942 261.842C141.997 256.217 136.743 243.647 133.559 235.77C131.584 230.895 127.037 224.667 123.845 220.62V220.577C118.401 215.323 111.655 216.635 111.655 225.452C111.655 234.269 117.09 249.461 125.156 257.528C133.223 265.594 144.628 274.567 147.596 276.102C150.564 277.638 153.98 278.915 157.543 276.102C157.793 274.451 157.931 272.786 157.957 271.116Z" fill="white" stroke="#263238" stroke-miterlimit="10"/>
<path d="M157.673 275.162C155.24 271.426 150.633 266.854 145.163 261.842C136.346 253.775 129.03 229.204 122.465 221.699C118.461 217.126 114.536 219.378 112.112 221.837C111.771 223.011 111.605 224.229 111.62 225.452C111.62 234.269 117.055 249.461 125.122 257.528C133.188 265.594 144.628 274.567 147.596 276.102C150.564 277.638 153.98 278.915 157.543 276.102C157.569 276.102 157.569 275.749 157.673 275.162Z" fill="white" stroke="#263238" stroke-miterlimit="10"/>
<path d="M163.807 147.34L166.058 123.52C166.058 123.52 182.752 118.827 191.008 119.767C196.932 120.572 202.774 121.889 208.47 123.701C208.47 123.701 211.662 154.846 215.372 170.038C219.082 185.231 220.807 207.748 220.997 216.186C221.187 224.623 215.553 227.626 214.052 229.506C212.551 231.387 202.992 242.827 202.992 242.827C202.992 242.827 196.953 239.074 195.106 233.07C193.26 227.065 194.356 224.632 194.356 224.632L208.47 213.934C208.47 213.934 202.655 179.606 198.117 171.911C193.579 164.215 190.241 161.221 185.366 159.91C180.492 158.599 180.302 159.159 174.108 163.283C170.2 165.929 166.557 168.945 163.229 172.29L158.665 235.744C158.665 235.744 151.763 229.179 147.225 226.176C144.52 224.372 141.702 222.743 138.787 221.302C138.787 221.302 146.362 164.362 150.115 161.195C153.868 158.029 163.807 147.34 163.807 147.34Z" fill="#B00000"/>
<g style="mix-blend-mode:multiply" opacity="0.2">
<path d="M221.006 217.057C218.866 217.057 215.519 217.221 213.379 212.235C210.032 204.427 207.064 181.754 201.853 170.599C196.642 159.444 186.238 149.773 180.664 149.773C175.091 149.773 187.73 157.952 187.73 157.952C187.73 157.952 182.89 155.726 181.777 155.726C180.664 155.726 166.904 163.162 162.443 165.759C157.983 168.356 158.725 170.599 157.267 177.285C155.999 182.979 155.274 221.155 155.084 232.5C157.164 234.338 158.691 235.787 158.691 235.787L163.272 172.307C166.591 168.955 170.225 165.93 174.125 163.275C180.319 159.151 180.5 158.59 185.383 159.901C190.266 161.213 193.631 164.215 198.135 171.902C202.638 179.589 208.487 213.926 208.487 213.926L194.416 224.623C194.416 224.623 193.295 227.056 195.167 233.061C197.039 239.065 203.052 242.818 203.052 242.818C203.052 242.818 212.611 231.37 214.112 229.498C215.613 227.626 220.798 224.822 221.006 217.057Z" fill="#263238"/>
</g>
<path d="M163.807 147.34L166.058 123.52C166.058 123.52 182.752 118.827 191.008 119.767C196.932 120.572 202.774 121.889 208.47 123.701C208.47 123.701 211.662 154.846 215.372 170.038C219.082 185.231 220.807 207.748 220.997 216.186C221.187 224.623 215.553 227.626 214.052 229.506C212.551 231.387 202.992 242.827 202.992 242.827C202.992 242.827 196.953 239.074 195.106 233.07C193.26 227.065 194.356 224.632 194.356 224.632L208.47 213.934C208.47 213.934 202.655 179.606 198.117 171.911C193.579 164.215 190.241 161.221 185.366 159.91C180.492 158.599 180.302 159.159 174.108 163.283C170.2 165.929 166.557 168.945 163.229 172.29L158.665 235.744C158.665 235.744 151.763 229.179 147.225 226.176C144.52 224.372 141.702 222.743 138.787 221.302C138.787 221.302 146.362 164.362 150.115 161.195C153.868 158.029 163.807 147.34 163.807 147.34Z" stroke="#263238" stroke-miterlimit="10"/>
<path d="M208.47 213.934C208.47 213.934 209.643 221.699 210.196 222.872" stroke="#263238" stroke-miterlimit="10"/>
<path d="M187.877 121.708L186.341 145.425C187.508 145.152 188.573 144.554 189.412 143.699C190.508 142.379 191.612 132.052 191.612 132.052" stroke="#263238" stroke-linecap="round" stroke-linejoin="round"/>
<path d="M174.694 123.46L180.845 122.588L181.285 121.044" stroke="#263238" stroke-linecap="round" stroke-linejoin="round"/>
<path d="M194.028 121.268L193.588 122.588L190.292 122.364" stroke="#263238" stroke-linecap="round" stroke-linejoin="round"/>
<path d="M196.219 121.268L196.004 123.028L201.051 124.124" stroke="#263238" stroke-linecap="round" stroke-linejoin="round"/>
<path d="M166.576 146.089C166.576 146.089 171.407 145.649 176.454 151.792" stroke="#263238" stroke-linecap="round" stroke-linejoin="round"/>
<path d="M174.479 148.065C174.479 148.065 175.574 148.065 178.43 152.456" stroke="#263238" stroke-linecap="round" stroke-linejoin="round"/>
<path d="M163.436 97.6295C163.436 97.6295 166.429 95.0413 167.559 93.8767C168.69 92.712 169.061 89.934 170.372 91.6249C171.683 93.3159 171.683 95.3778 170.752 95.9386C169.82 96.4994 167.559 97.664 166.999 98.3801C166.438 99.0962 161.934 99.5017 163.436 97.6295Z" fill="white" stroke="#263238" stroke-miterlimit="10"/>
<path d="M207.909 84.8956C207.909 84.8956 204.26 83.2823 202.845 82.5404C201.43 81.7984 200.257 79.2275 199.489 81.2377C198.721 83.2478 199.36 85.2062 200.421 85.465C201.482 85.7238 203.967 86.1207 204.734 86.6729C205.502 87.225 209.902 86.2415 207.909 84.8956Z" fill="white" stroke="#263238" stroke-miterlimit="10"/>
<path d="M165.498 72.1186L166.248 98.9409L169.621 123.891L172.813 123.33L168.871 98.1903L168.681 71.368L165.498 72.1186Z" fill="#263238" stroke="#263238" stroke-miterlimit="10"/>
<path d="M197.384 63.1117C197.384 63.1117 203.199 83.7482 203.768 86.1897C204.338 88.6312 205.83 102.133 206.201 103.444C206.572 104.756 203.768 124.452 203.768 124.452L206.952 125.202L209.203 101.382L206.615 86.3709L200.8 62.7407L197.384 63.1117Z" fill="#263238" stroke="#263238" stroke-miterlimit="10"/>
<path d="M172.097 118.801L170.7 117.567L169.216 119.853L169.621 123.891L172.813 123.33L172.097 118.801Z" fill="white" stroke="#263238" stroke-miterlimit="10"/>
<path d="M207.357 121.001L206.555 118.715L204.355 120.233C204.018 122.726 203.768 124.486 203.768 124.486L206.952 125.237L207.357 121.001Z" fill="white" stroke="#263238" stroke-miterlimit="10"/>
<path d="M184.063 73.059C184.063 73.059 173.564 67.0198 173.184 68.9351C172.805 70.8504 173.374 80.5647 174.496 80.1506C175.617 79.7365 184.253 74.9138 184.253 74.9138C184.253 74.9138 195.322 81.091 195.512 78.0887C195.702 75.0864 195.132 67.2096 192.51 67.0198C189.887 66.83 184.063 73.059 184.063 73.059Z" fill="#263238" stroke="#263238" stroke-miterlimit="10"/>
<path d="M185.815 73.7147L191.293 71.2214" stroke="white" stroke-width="0.5" stroke-linecap="round" stroke-linejoin="round"/>
<path d="M185.815 73.7147L190.793 74.8793" stroke="white" stroke-width="0.5" stroke-linecap="round" stroke-linejoin="round"/>
<path d="M178.507 72.55L182.83 74.0425L178.68 75.3711" stroke="white" stroke-width="0.5" stroke-linecap="round" stroke-linejoin="round"/>
<path d="M185.487 72.386C185.487 72.386 185.815 74.5429 185.487 75.0433C185.159 75.5436 183.822 75.3711 183.322 74.7068" stroke="white" stroke-width="0.5" stroke-linecap="round" stroke-linejoin="round"/>
<path d="M225.854 95.7919C225.854 95.7919 222.912 94.5496 224.991 92.5135C227.071 90.4775 248.975 85.6117 253.125 85.6893C257.275 85.767 259.595 88.7779 260.475 92.2375C261.355 95.697 259.337 99.2773 254.971 101.037C250.606 102.797 231.928 105.282 229.029 104.816C226.13 104.35 225.854 95.7919 225.854 95.7919Z" fill="white"/>
<g style="mix-blend-mode:multiply">
<path d="M260.544 92.4014L259.13 92.7033C258.871 91.1763 258.586 89.6407 258.267 88.1223H258.431C257.906 87.5137 257.278 87.0026 256.576 86.6125C256.619 86.8109 256.679 87.018 256.723 87.225L250.157 88.8901C249.864 87.9497 249.519 87.0525 249.156 86.1725L247.854 86.3882C248.233 87.2509 248.587 88.2258 248.906 89.2093L240.141 91.4438C239.687 90.3636 239.163 89.3146 238.571 88.3034L237.225 88.6226C237.844 89.6302 238.386 90.6828 238.847 91.7716L231.945 93.4971C231.37 92.4507 230.691 91.465 229.918 90.5552C229.46 90.6932 229.055 90.8226 228.623 90.9606C229.42 91.8314 230.12 92.7859 230.711 93.8076L229.598 94.0837C228.247 94.402 226.974 94.9888 225.854 95.8092C225.854 95.9472 225.854 96.5597 225.975 97.4052C227.09 96.3819 228.447 95.6577 229.918 95.3002L231.324 94.9464C231.819 96.0014 232.201 97.1062 232.463 98.2421L226.268 99.5362C226.337 99.9618 226.423 100.385 226.527 100.804L232.704 99.5189C232.869 100.63 232.936 101.753 232.903 102.875L227.649 103.738C227.797 104.006 227.999 104.24 228.243 104.426C228.486 104.611 228.766 104.744 229.063 104.816L232.816 104.212C232.816 104.393 232.773 104.566 232.756 104.747L234.059 104.635C234.059 104.428 234.102 104.212 234.119 104.005L241.124 102.884V103.807L242.47 103.617C242.47 103.298 242.47 102.978 242.47 102.659L250.33 101.4C250.33 101.693 250.278 101.986 250.252 102.262L251.607 102.021C251.607 101.753 251.658 101.486 251.676 101.218L256.248 100.477C257.092 100.031 257.867 99.4676 258.552 98.8029L251.727 99.8985C251.761 98.473 251.706 97.0468 251.563 95.628L258.086 94.2649C258.319 95.7488 258.508 97.2241 258.672 98.6648C259.103 98.2257 259.48 97.7361 259.794 97.2068C259.664 96.1456 259.518 95.0845 259.354 94.0061L260.726 93.7214C260.714 93.276 260.653 92.8334 260.544 92.4014ZM232.54 94.6531L239.295 92.9277C239.731 94.1268 240.083 95.3548 240.348 96.6029L233.688 97.9919C233.419 96.843 233.035 95.7243 232.54 94.6531ZM234.188 102.685C234.207 101.53 234.123 100.375 233.938 99.2342L240.598 97.8452C240.816 99.0673 240.972 100.3 241.064 101.538L234.188 102.685ZM240.59 92.6171L249.217 90.4085C249.595 91.7772 249.883 93.1692 250.08 94.5755L241.633 96.3009C241.364 95.0521 241.015 93.8216 240.59 92.6171ZM242.401 101.365C242.306 100.107 242.148 98.8545 241.927 97.6123L250.278 95.8868C250.409 97.2861 250.452 98.6922 250.407 100.097L242.401 101.365ZM251.382 94.3167C251.185 92.8905 250.897 91.4785 250.52 90.0893L257.016 88.4415C257.344 89.9426 257.631 91.4495 257.879 92.9622L251.382 94.3167Z" fill="#B00000"/>
</g>
<path d="M225.854 95.7919C225.854 95.7919 222.912 94.5496 224.991 92.5135C227.071 90.4775 248.975 85.6117 253.125 85.6893C257.275 85.767 259.595 88.7779 260.475 92.2375C261.355 95.697 259.337 99.2773 254.971 101.037C250.606 102.797 231.928 105.282 229.029 104.816C226.13 104.35 225.854 95.7919 225.854 95.7919Z" stroke="#263238" stroke-miterlimit="10"/>
<path d="M220.548 95.697L222.653 103.686L228.313 102.884C228.818 101.448 228.845 99.8885 228.391 98.4364C227.937 96.9843 227.026 95.7178 225.794 94.8257L220.548 95.697Z" fill="white" stroke="#263238" stroke-miterlimit="10"/>
<path d="M220.548 95.697C220.548 95.697 211.153 84.4815 209.902 84.8697C208.651 85.258 201.335 85.7325 200.412 86.647C199.489 87.5615 201.353 90.2877 201.353 90.2877C200.999 91.3817 200.759 92.5092 200.637 93.6523C200.637 94.8429 202.362 96.0594 202.362 96.0594C202.3 97.0924 202.361 98.1291 202.543 99.1479C202.819 100.011 203.294 100.295 203.458 100.873C203.622 101.451 203.345 103.66 204.881 104.16C206.232 104.704 207.709 104.856 209.143 104.6L211.11 103.988C211.11 103.988 215.544 104.954 217.391 104.575C219.237 104.195 222.627 103.712 222.627 103.712L220.548 95.697Z" fill="white"/>
<g style="mix-blend-mode:multiply" opacity="0.5">
<path d="M217.382 104.531C218.374 104.333 219.798 104.1 220.911 103.936C219.263 104.117 216.804 104.238 215.312 103.574C212.905 102.504 209.971 100.908 207.029 101.969C205.974 102.349 204.945 102.798 203.949 103.315C204.043 103.503 204.172 103.671 204.331 103.809C204.489 103.946 204.673 104.051 204.872 104.117C206.224 104.661 207.701 104.813 209.134 104.557L211.101 103.945C211.101 103.945 215.536 104.911 217.382 104.531Z" fill="#B00000"/>
</g>
<path d="M220.548 95.697C220.548 95.697 211.153 84.4815 209.902 84.8697C208.651 85.258 201.335 85.7325 200.412 86.647C199.489 87.5615 201.353 90.2877 201.353 90.2877C200.999 91.3817 200.759 92.5092 200.637 93.6523C200.637 94.8429 202.362 96.0594 202.362 96.0594C202.3 97.0924 202.361 98.1291 202.543 99.1479C202.819 100.011 203.294 100.295 203.458 100.873C203.622 101.451 203.345 103.66 204.881 104.16C206.232 104.704 207.709 104.856 209.143 104.6L211.11 103.988C211.11 103.988 215.544 104.954 217.391 104.575C219.237 104.195 222.627 103.712 222.627 103.712L220.548 95.697Z" stroke="#263238" stroke-miterlimit="10"/>
<path d="M201.335 90.2877L209.833 89.7959" stroke="#263238" stroke-miterlimit="10"/>
<path d="M202.353 96.0594L210.791 95.3951" stroke="#263238" stroke-miterlimit="10"/>
<path d="M203.449 100.83L210.592 99.7777" stroke="#263238" stroke-miterlimit="10"/>
<path d="M149.554 113.383C149.554 113.383 151.987 111.321 149.364 110.01C146.742 108.698 124.414 110.57 120.472 111.882C116.529 113.193 115.218 116.765 115.407 120.328C115.597 123.891 118.599 126.704 123.284 127.083C127.969 127.463 146.578 124.271 149.166 122.951C151.754 121.631 149.554 113.383 149.554 113.383Z" fill="white"/>
<g style="mix-blend-mode:multiply">
<path d="M149.804 122.407C150.09 121.985 150.279 121.505 150.357 121.001L143.455 122.157C143.455 121.182 143.455 120.207 143.576 119.25L150.477 118.257C150.477 117.826 150.391 117.395 150.339 116.972L143.731 117.921C143.874 116.804 144.114 115.701 144.447 114.625L149.813 114.151C149.71 113.676 149.632 113.383 149.632 113.383C149.824 113.215 149.997 113.027 150.15 112.822L144.973 113.279C145.536 111.883 146.423 110.641 147.561 109.656C147.044 109.656 146.431 109.587 145.767 109.578C144.77 110.698 143.997 111.999 143.489 113.409L136.493 114.021C136.981 112.556 137.596 111.136 138.33 109.777L136.829 109.872C136.131 111.257 135.554 112.701 135.104 114.185L127.494 114.858C127.728 113.428 128.071 112.017 128.521 110.64L127.115 110.803C126.702 112.168 126.388 113.561 126.174 114.97L120.446 115.479C120.884 114.097 121.471 112.766 122.197 111.511C121.64 111.606 121.09 111.736 120.549 111.899C119.942 113.076 119.445 114.306 119.065 115.574L116.158 115.825C115.975 116.258 115.825 116.705 115.709 117.162L118.712 116.894C118.37 118.428 118.257 120.004 118.375 121.57L115.735 121.959C115.87 122.384 116.05 122.795 116.27 123.184L118.53 122.856C118.724 123.968 119.04 125.056 119.471 126.1C120.401 126.531 121.389 126.822 122.404 126.962L126.166 126.341C126.166 126.566 126.235 126.79 126.269 127.014L127.555 126.911L127.373 126.177L134.577 124.978C134.664 125.323 134.776 125.677 134.879 126.022L136.173 125.824C136.061 125.47 135.949 125.116 135.863 124.762L142.066 123.727C142.066 124.081 142.066 124.426 142.118 124.771C142.566 124.685 142.98 124.598 143.429 124.504C143.429 124.176 143.429 123.848 143.429 123.511L149.804 122.407ZM120.023 116.765L125.95 116.247C125.79 117.659 125.715 119.08 125.726 120.501L119.643 121.363C119.515 119.822 119.632 118.27 119.988 116.765H120.023ZM120.817 125.927C120.346 124.883 120.004 123.785 119.799 122.657L125.76 121.795C125.76 122.908 125.89 123.995 126.01 125.056L120.817 125.927ZM127.279 124.849C127.158 123.796 127.072 122.726 127.028 121.622L134.086 120.604C134.096 121.631 134.191 122.655 134.37 123.667L127.279 124.849ZM134.111 119.293L127.011 120.319C127.011 118.918 127.092 117.518 127.253 116.126L134.689 115.479C134.369 116.723 134.164 117.994 134.077 119.275L134.111 119.293ZM142.04 122.381L135.587 123.451C135.407 122.452 135.314 121.438 135.311 120.423L142.143 119.439C142.092 120.414 142.04 121.398 142.04 122.381ZM142.281 118.111L135.38 119.112C135.468 117.844 135.676 116.587 136.001 115.359L142.963 114.746C142.653 115.848 142.433 116.973 142.307 118.111H142.281Z" fill="#B00000"/>
</g>
<path d="M149.554 113.383C149.554 113.383 151.987 111.321 149.364 110.01C146.742 108.698 124.414 110.57 120.472 111.882C116.529 113.193 115.218 116.765 115.407 120.328C115.597 123.891 118.599 126.704 123.284 127.083C127.969 127.463 146.578 124.271 149.166 122.951C151.754 121.631 149.554 113.383 149.554 113.383Z" stroke="#263238" stroke-miterlimit="10"/>
<path d="M154.618 111.701L154.989 119.948L149.364 120.889C148.454 119.671 147.963 118.191 147.963 116.67C147.963 115.149 148.454 113.669 149.364 112.451L154.618 111.701Z" fill="white" stroke="#263238" stroke-miterlimit="10"/>
<path d="M154.618 111.701C154.618 111.701 160.243 98.1903 161.52 98.1903C162.797 98.1903 169.966 96.4649 171.088 97.0688C172.21 97.6727 171.278 100.822 171.278 100.822C171.955 101.757 172.533 102.761 173.003 103.815C173.374 104.946 172.063 106.636 172.063 106.636C172.428 107.605 172.68 108.612 172.813 109.639C172.813 110.571 172.434 110.95 172.434 111.511C172.434 112.072 173.374 114.099 172.063 115.074C170.936 116.006 169.57 116.604 168.12 116.799H166.058C166.058 116.799 162.116 119.051 160.243 119.232C158.371 119.413 154.989 119.983 154.989 119.983L154.618 111.701Z" fill="white"/>
<g style="mix-blend-mode:multiply" opacity="0.5">
<path d="M166.058 116.765H168.12C169.57 116.57 170.936 115.972 172.063 115.039C172.359 114.787 172.577 114.457 172.693 114.086C172.809 113.715 172.818 113.319 172.719 112.943C171.537 113.693 170.227 114.217 168.854 114.487C165.912 115.022 162.711 115.29 160.036 116.618C158.308 117.562 156.668 118.659 155.136 119.897C155.809 119.784 158.587 119.327 160.243 119.163C162.116 119.017 166.058 116.765 166.058 116.765Z" fill="#B00000"/>
</g>
<path d="M154.618 111.701C154.618 111.701 160.243 98.1903 161.52 98.1903C162.797 98.1903 169.966 96.4649 171.088 97.0688C172.21 97.6727 171.278 100.822 171.278 100.822C171.955 101.757 172.533 102.761 173.003 103.815C173.374 104.946 172.063 106.636 172.063 106.636C172.428 107.605 172.68 108.612 172.813 109.639C172.813 110.571 172.434 110.95 172.434 111.511C172.434 112.072 173.374 114.099 172.063 115.074C170.936 116.006 169.57 116.604 168.12 116.799H166.058C166.058 116.799 162.116 119.051 160.243 119.232C158.371 119.413 154.989 119.983 154.989 119.983L154.618 111.701Z" stroke="#263238" stroke-miterlimit="10"/>
<path d="M171.312 100.822L163.056 102.884" stroke="#263238" stroke-miterlimit="10"/>
<path d="M172.063 106.636L163.807 108.509" stroke="#263238" stroke-miterlimit="10"/>
<path d="M172.434 111.511L165.308 112.632" stroke="#263238" stroke-miterlimit="10"/>
</svg>
